<svg width="424" height="424" version="1.1" xmlns="http://www.w3.org/2000/svg" desc="Created with imagetracer.js version 1.2.6" ><path fill="rgb(0,0,0)" stroke="rgb(0,0,0)" stroke-width="1" opacity="0" d="M 0 0 L 192 0.5 L 171.5 3 L 147.5 9 Q 125.3 16.3 106.5 27 Q 75.2 45.2 52 71.5 Q 28.5 98 14 133.5 L 4 166.5 L 0.5 192 L 0 0 Z " /><path fill="rgb(0,0,0)" stroke="rgb(0,0,0)" stroke-width="1" opacity="0" d="M 232.5 0 L 424 0 L 424 191.5 L 423 191.5 L 423 183.5 L 422 182.5 L 421 171.5 L 415 147.5 Q 407.7 125.3 397 106.5 Q 378.8 75.2 352.5 52 Q 328.6 30.9 297.5 17 L 269.5 7 L 240.5 1 L 232.5 1 L 232.5 0 Z " /><path fill="rgb(0,0,0)" stroke="rgb(0,0,0)" stroke-width="1" opacity="0" d="M 0.5 232 L 3 252.5 L 9 276.5 Q 16.3 298.7 27 317.5 Q 45.2 348.8 71.5 372 Q 98 395.5 133.5 410 L 166.5 420 L 192 423.5 L 0 424 L 0.5 232 Z " /><path fill="rgb(0,0,0)" stroke="rgb(0,0,0)" stroke-width="1" opacity="0" d="M 423.5 232 L 424 424 L 232 423.5 L 252.5 421 L 276.5 415 Q 298.7 407.7 317.5 397 Q 348.8 378.8 372 352.5 Q 395.5 326 410 290.5 L 420 257.5 L 423.5 232 Z " /><path fill="rgb(35,62,79)" stroke="rgb(35,62,79)" stroke-width="1" opacity="0.8980392156862745" d="M 57.5 119 L 63 119.5 L 57.5 120 L 57.5 119 Z " /><path fill="rgb(35,62,79)" stroke="rgb(35,62,79)" stroke-width="1" opacity="0.8980392156862745" d="M 84.5 119 L 94 119.5 L 84.5 120 L 84.5 119 Z " /><path fill="rgb(35,62,79)" stroke="rgb(35,62,79)" stroke-width="1" opacity="0.8980392156862745" d="M 192.5 119 L 200 119.5 L 192.5 120 L 192.5 119 Z " /><path fill="rgb(35,62,79)" stroke="rgb(35,62,79)" stroke-width="1" opacity="0.8980392156862745" d="M 215.5 119 L 219 119.5 L 215.5 120 L 215.5 119 Z " /><path fill="rgb(35,62,79)" stroke="rgb(35,62,79)" stroke-width="1" opacity="0.8980392156862745" d="M 100.5 120 L 105 120.5 L 100.5 121 L 100.5 120 Z " /><path fill="rgb(35,62,79)" stroke="rgb(35,62,79)" stroke-width="1" opacity="0.8980392156862745" d="M 186.5 120 L 189 120.5 L 186.5 121 L 186.5 120 Z " /><path fill="rgb(35,62,79)" stroke="rgb(35,62,79)" stroke-width="1" opacity="0.8980392156862745" d="M 223.5 120 L 226 120.5 L 223.5 121 L 223.5 120 Z " /><path fill="rgb(35,62,79)" stroke="rgb(35,62,79)" stroke-width="1" opacity="0.8980392156862745" d="M 108.5 121 L 113 121.5 L 108.5 122 L 108.5 121 Z " /><path fill="rgb(35,62,79)" stroke="rgb(35,62,79)" stroke-width="1" opacity="0.8980392156862745" d="M 115.5 122 L 118 122.5 L 115.5 123 L 115.5 122 Z " /><path fill="rgb(35,62,79)" stroke="rgb(35,62,79)" stroke-width="1" opacity="0.8980392156862745" d="M 232.5 122 L 235 122.5 L 232.5 123 L 232.5 122 Z " /><path fill="rgb(35,62,79)" stroke="rgb(35,62,79)" stroke-width="1" opacity="0.8980392156862745" d="M 43.5 123 L 45 123.5 L 42.5 125 L 43.5 123 Z " /><path fill="rgb(35,62,79)" stroke="rgb(35,62,79)" stroke-width="1" opacity="0.8980392156862745" d="M 120.5 123 L 123 123.5 L 120.5 124 L 120.5 123 Z " /><path fill="rgb(35,62,79)" stroke="rgb(35,62,79)" stroke-width="1" opacity="0.8980392156862745" d="M 125.5 124 L 128 124.5 L 125.5 125 L 125.5 124 Z " /><path fill="rgb(35,62,79)" stroke="rgb(35,62,79)" stroke-width="1" opacity="0.8980392156862745" d="M 186.5 126 L 197 126.5 L 186.5 127 L 186.5 126 Z " /><path fill="rgb(35,62,79)" stroke="rgb(35,62,79)" stroke-width="1" opacity="0.8980392156862745" d="M 201.5 126 L 208 126.5 L 201.5 127 L 201.5 126 Z " /><path fill="rgb(35,62,79)" stroke="rgb(35,62,79)" stroke-width="1" opacity="0.8980392156862745" d="M 244.5 126 L 250 128.5 L 248.5 129 L 244.5 127 L 244.5 126 Z " /><path fill="rgb(35,62,79)" stroke="rgb(35,62,79)" stroke-width="1" opacity="0.8980392156862745" d="M 37.5 127 L 35.5 130 L 37.5 127 Z " /><path fill="rgb(35,62,79)" stroke="rgb(35,62,79)" stroke-width="1" opacity="0.8980392156862745" d="M 211.5 127 L 216 129.5 L 214.5 129 Q 210.7 128.8 211.5 127 Z " /><path fill="rgb(35,62,79)" stroke="rgb(35,62,79)" stroke-width="1" opacity="0.8980392156862745" d="M 162.5 128 L 164 128.5 L 160.5 130 L 160.5 129 L 162.5 128 Z " /><path fill="rgb(35,62,79)" stroke="rgb(35,62,79)" stroke-width="1" opacity="0.8980392156862745" d="M 253.5 130 L 254.5 132 L 253.5 130 Z " /><path fill="rgb(35,62,79)" stroke="rgb(35,62,79)" stroke-width="1" opacity="0.8980392156862745" d="M 153.5 131 L 156 131.5 L 153.5 132 L 153.5 131 Z " /><path fill="rgb(35,62,79)" stroke="rgb(35,62,79)" stroke-width="1" opacity="0.8980392156862745" d="M 219.5 131 L 223.5 136 L 219.5 131 Z " /><path fill="rgb(35,62,79)" stroke="rgb(35,62,79)" stroke-width="1" opacity="0.8980392156862745" d="M 84.5 132 L 102.5 132 L 103 134 L 84.5 133 L 84.5 132 Z " /><path fill="rgb(35,62,79)" stroke="rgb(35,62,79)" stroke-width="1" opacity="0.8980392156862745" d="M 256.5 132 L 257.5 134 L 256.5 132 Z " /><path fill="rgb(35,62,79)" stroke="rgb(35,62,79)" stroke-width="1" opacity="0.8980392156862745" d="M 110.5 133 L 118 133.5 Q 117 136 112.5 135 L 110.5 133 Z " /><path fill="rgb(35,62,79)" stroke="rgb(35,62,79)" stroke-width="1" opacity="0.8980392156862745" d="M 87.5 134 L 90 134.5 L 87.5 135 L 87.5 134 Z " /><path fill="rgb(35,62,79)" stroke="rgb(35,62,79)" stroke-width="1" opacity="0.8980392156862745" d="M 121 134 L 125 135.5 L 121 136 L 121 134 Z " /><path fill="rgb(35,62,79)" stroke="rgb(35,62,79)" stroke-width="1" opacity="0.8980392156862745" d="M 82.5 135 L 85 135.5 L 82.5 136 L 82.5 135 Z " /><path fill="rgb(35,62,79)" stroke="rgb(35,62,79)" stroke-width="1" opacity="0.8980392156862745" d="M 127 135 L 131 135.5 L 127 137 L 127 135 Z " /><path fill="rgb(35,62,79)" stroke="rgb(35,62,79)" stroke-width="1" opacity="0.8980392156862745" d="M 133.5 136 L 135 136.5 L 132.5 138 L 133.5 136 Z " /><path fill="rgb(35,62,79)" stroke="rgb(35,62,79)" stroke-width="1" opacity="0.8980392156862745" d="M 262.5 136 L 263.5 138 L 262.5 136 Z " /><path fill="rgb(35,62,79)" stroke="rgb(35,62,79)" stroke-width="1" opacity="0.8980392156862745" d="M 75.5 137 L 77 137.5 L 74.5 139 L 75.5 137 Z " /><path fill="rgb(35,62,79)" stroke="rgb(35,62,79)" stroke-width="1" opacity="0.8980392156862745" d="M 137 137 L 143 139.5 L 141.5 139 Q 135.7 140.7 137 137 Z " /><path fill="rgb(35,62,79)" stroke="rgb(35,62,79)" stroke-width="1" opacity="0.8980392156862745" d="M 158.5 137 L 157.5 139 L 158.5 137 Z " /><path fill="rgb(35,62,79)" stroke="rgb(35,62,79)" stroke-width="1" opacity="0.8980392156862745" d="M 265.5 138 L 267.5 141 L 265.5 138 Z " /><path fill="rgb(35,62,79)" stroke="rgb(35,62,79)" stroke-width="1" opacity="0.8980392156862745" d="M 30.5 139 L 31 145.5 L 30 145.5 L 30.5 139 Z " /><path fill="rgb(35,62,79)" stroke="rgb(35,62,79)" stroke-width="1" opacity="0.8980392156862745" d="M 155.5 139 L 154.5 141 L 155.5 139 Z " /><path fill="rgb(35,62,79)" stroke="rgb(35,62,79)" stroke-width="1" opacity="0.8980392156862745" d="M 64.5 141 L 63.5 143 L 64.5 141 Z " /><path fill="rgb(35,62,79)" stroke="rgb(35,62,79)" stroke-width="1" opacity="0.8980392156862745" d="M 226.5 141 L 227 150.5 L 226 150.5 L 226.5 141 Z " /><path fill="rgb(35,62,79)" stroke="rgb(35,62,79)" stroke-width="1" opacity="0.8980392156862745" d="M 151.5 142 L 150.5 144 L 151.5 142 Z " /><path fill="rgb(35,62,79)" stroke="rgb(35,62,79)" stroke-width="1" opacity="0.8980392156862745" d="M 270.5 142 L 280.5 153 L 270.5 142 Z " /><path fill="rgb(35,62,79)" stroke="rgb(35,62,79)" stroke-width="1" opacity="0.8980392156862745" d="M 93.5 143 L 103 143.5 L 93.5 144 L 93.5 143 Z " /><path fill="rgb(35,62,79)" stroke="rgb(35,62,79)" stroke-width="1" opacity="0.8980392156862745" d="M 105.5 143 L 119 143.5 L 105.5 144 L 105.5 143 Z " /><path fill="rgb(35,62,79)" stroke="rgb(35,62,79)" stroke-width="1" opacity="0.8980392156862745" d="M 89.5 144 L 92 144.5 L 89.5 145 L 89.5 144 Z " /><path fill="rgb(35,62,79)" stroke="rgb(35,62,79)" stroke-width="1" opacity="0.8980392156862745" d="M 123.5 144 L 128 144.5 L 123.5 145 L 123.5 144 Z " /><path fill="rgb(35,62,79)" stroke="rgb(35,62,79)" stroke-width="1" opacity="0.8980392156862745" d="M 86.5 145 L 88 145.5 L 85.5 147 L 86.5 145 Z " /><path fill="rgb(35,62,79)" stroke="rgb(35,62,79)" stroke-width="1" opacity="0.8980392156862745" d="M 131.5 145 L 134 145.5 L 131.5 146 L 131.5 145 Z " /><path fill="rgb(35,62,79)" stroke="rgb(35,62,79)" stroke-width="1" opacity="0.8980392156862745" d="M 147.5 145 L 143.5 150 L 147.5 145 Z " /><path fill="rgb(35,62,79)" stroke="rgb(35,62,79)" stroke-width="1" opacity="0.8980392156862745" d="M 61.5 146 L 62 153.5 L 61 153.5 L 61.5 146 Z " /><path fill="rgb(35,62,79)" stroke="rgb(35,62,79)" stroke-width="1" opacity="0.8980392156862745" d="M 31.5 148 L 32 150.5 L 31 150.5 L 31.5 148 Z " /><path fill="rgb(35,62,79)" stroke="rgb(35,62,79)" stroke-width="1" opacity="0.8980392156862745" d="M 134.5 148 L 133.5 150 L 134.5 148 Z " /><path fill="rgb(35,62,79)" stroke="rgb(35,62,79)" stroke-width="1" opacity="0.8980392156862745" d="M 80.5 150 L 80 151.5 L 79.5 153 L 79 151.5 L 80.5 150 Z " /><path fill="rgb(35,62,79)" stroke="rgb(35,62,79)" stroke-width="1" opacity="0.8980392156862745" d="M 131.5 152 L 129.5 155 L 131.5 152 Z " /><path fill="rgb(35,62,79)" stroke="rgb(35,62,79)" stroke-width="1" opacity="0.8980392156862745" d="M 140.5 152 L 136.5 157 L 140.5 152 Z " /><path fill="rgb(35,62,79)" stroke="rgb(35,62,79)" stroke-width="1" opacity="0.8980392156862745" d="M 66.5 154 L 67 156.5 L 66 156.5 L 66.5 154 Z " /><path fill="rgb(35,62,79)" stroke="rgb(35,62,79)" stroke-width="1" opacity="0.8980392156862745" d="M 45.5 155 L 50 159.5 L 49.5 162 L 48.5 159 L 46 157.5 L 45.5 155 Z " /><path fill="rgb(35,62,79)" stroke="rgb(35,62,79)" stroke-width="1" opacity="0.8980392156862745" d="M 128.5 156 L 127.5 158 L 128.5 156 Z " /><path fill="rgb(35,62,79)" stroke="rgb(35,62,79)" stroke-width="1" opacity="0.8980392156862745" d="M 283.5 156 L 284.5 158 L 283.5 156 Z " /><path fill="rgb(35,62,79)" stroke="rgb(35,62,79)" stroke-width="1" opacity="0.8980392156862745" d="M 224.5 157 L 225 158.5 L 223 159.5 L 224.5 157 Z " /><path fill="rgb(35,62,79)" stroke="rgb(35,62,79)" stroke-width="1" opacity="0.8980392156862745" d="M 134.5 159 L 133.5 161 L 134.5 159 Z " /><path fill="rgb(35,62,79)" stroke="rgb(35,62,79)" stroke-width="1" opacity="0.8980392156862745" d="M 286.5 160 L 287.5 162 L 286.5 160 Z " /><path fill="rgb(35,62,79)" stroke="rgb(35,62,79)" stroke-width="1" opacity="0.8980392156862745" d="M 36.5 161 L 37.5 163 L 36.5 161 Z " /><path fill="rgb(35,62,79)" stroke="rgb(35,62,79)" stroke-width="1" opacity="0.8980392156862745" d="M 51.5 162 L 63.5 175 L 52.5 164 Q 51.3 166.3 50 163.5 L 51.5 162 Z " /><path fill="rgb(35,62,79)" stroke="rgb(35,62,79)" stroke-width="1" opacity="0.8980392156862745" d="M 124.5 162 L 123.5 164 L 124.5 162 Z " /><path fill="rgb(35,62,79)" stroke="rgb(35,62,79)" stroke-width="1" opacity="0.8980392156862745" d="M 132.5 162 L 131.5 164 L 132.5 162 Z " /><path fill="rgb(35,62,79)" stroke="rgb(35,62,79)" stroke-width="1" opacity="0.8980392156862745" d="M 288.5 163 L 289.5 165 L 288.5 163 Z " /><path fill="rgb(35,62,79)" stroke="rgb(35,62,79)" stroke-width="1" opacity="0.8980392156862745" d="M 70.5 165 L 71.5 167 L 70.5 165 Z " /><path fill="rgb(35,62,79)" stroke="rgb(35,62,79)" stroke-width="1" opacity="0.8980392156862745" d="M 83.5 165 L 85.5 168 L 83.5 165 Z " /><path fill="rgb(35,62,79)" stroke="rgb(35,62,79)" stroke-width="1" opacity="0.8980392156862745" d="M 130.5 165 L 129.5 167 L 130.5 165 Z " /><path fill="rgb(35,62,79)" stroke="rgb(35,62,79)" stroke-width="1" opacity="0.8980392156862745" d="M 219.5 165 L 190.5 195 L 219.5 165 Z " /><path fill="rgb(35,62,79)" stroke="rgb(35,62,79)" stroke-width="1" opacity="0.8980392156862745" d="M 290.5 166 L 291.5 168 L 290.5 166 Z " /><path fill="rgb(35,62,79)" stroke="rgb(35,62,79)" stroke-width="1" opacity="0.8980392156862745" d="M 40.5 167 L 41.5 169 L 40.5 167 Z " /><path fill="rgb(35,62,79)" stroke="rgb(35,62,79)" stroke-width="1" opacity="0.8980392156862745" d="M 67.5 167 L 68.5 169 L 67.5 167 Z " /><path fill="rgb(35,62,79)" stroke="rgb(35,62,79)" stroke-width="1" opacity="0.8980392156862745" d="M 121.5 167 L 120.5 169 L 121.5 167 Z " /><path fill="rgb(35,62,79)" stroke="rgb(35,62,79)" stroke-width="1" opacity="0.8980392156862745" d="M 54.5 168 L 56.5 171 L 54.5 168 Z " /><path fill="rgb(35,62,79)" stroke="rgb(35,62,79)" stroke-width="1" opacity="0.8980392156862745" d="M 128.5 168 L 128 169.5 L 126.5 172 L 127 170.5 L 128.5 168 Z " /><path fill="rgb(35,62,79)" stroke="rgb(35,62,79)" stroke-width="1" opacity="0.8980392156862745" d="M 73.5 169 L 74.5 171 L 73.5 169 Z " /><path fill="rgb(35,62,79)" stroke="rgb(35,62,79)" stroke-width="1" opacity="0.8980392156862745" d="M 42.5 170 L 45.5 174 L 42.5 170 Z " /><path fill="rgb(35,62,79)" stroke="rgb(35,62,79)" stroke-width="1" opacity="0.8980392156862745" d="M 69.5 170 L 71.5 173 L 69.5 170 Z " /><path fill="rgb(35,62,79)" stroke="rgb(35,62,79)" stroke-width="1" opacity="0.8980392156862745" d="M 75.5 172 L 77.5 175 L 75.5 172 Z " /><path fill="rgb(35,62,79)" stroke="rgb(35,62,79)" stroke-width="1" opacity="0.8980392156862745" d="M 89.5 172 L 99.5 183 L 89.5 172 Z " /><path fill="rgb(35,62,79)" stroke="rgb(35,62,79)" stroke-width="1" opacity="0.8980392156862745" d="M 72.5 174 L 74.5 177 L 72.5 174 Z " /><path fill="rgb(35,62,79)" stroke="rgb(35,62,79)" stroke-width="1" opacity="0.8980392156862745" d="M 47.5 176 L 59.5 189 L 47.5 176 Z " /><path fill="rgb(35,62,79)" stroke="rgb(35,62,79)" stroke-width="1" opacity="0.8980392156862745" d="M 78.5 176 L 90.5 189 L 78.5 176 Z " /><path fill="rgb(35,62,79)" stroke="rgb(35,62,79)" stroke-width="1" opacity="0.8980392156862745" d="M 67.5 177 L 69.5 180 L 67.5 177 Z " /><path fill="rgb(35,62,79)" stroke="rgb(35,62,79)" stroke-width="1" opacity="0.8980392156862745" d="M 76.5 179 L 78.5 182 L 76.5 179 Z " /><path fill="rgb(35,62,79)" stroke="rgb(35,62,79)" stroke-width="1" opacity="0.8980392156862745" d="M 66.5 180 L 70.5 185 L 66.5 180 Z " /><path fill="rgb(35,62,79)" stroke="rgb(35,62,79)" stroke-width="1" opacity="0.8980392156862745" d="M 72.5 181 L 74.5 184 L 72.5 181 Z " /><path fill="rgb(35,62,79)" stroke="rgb(35,62,79)" stroke-width="1" opacity="0.8980392156862745" d="M 76.5 184 L 77.5 186 L 76.5 184 Z " /><path fill="rgb(35,62,79)" stroke="rgb(35,62,79)" stroke-width="1" opacity="0.8980392156862745" d="M 103.5 185 L 106.5 189 L 103.5 185 Z " /><path fill="rgb(35,62,79)" stroke="rgb(35,62,79)" stroke-width="1" opacity="0.8980392156862745" d="M 82.5 186 L 86 191 L 83 189.5 L 84 188.5 L 82.5 186 Z " /><path fill="rgb(35,62,79)" stroke="rgb(35,62,79)" stroke-width="1" opacity="0.8980392156862745" d="M 302.5 186 L 303.5 188 L 302.5 186 Z " /><path fill="rgb(35,62,79)" stroke="rgb(35,62,79)" stroke-width="1" opacity="0.8980392156862745" d="M 74.5 187 L 76.5 190 L 74.5 187 Z " /><path fill="rgb(35,62,79)" stroke="rgb(35,62,79)" stroke-width="1" opacity="0.8980392156862745" d="M 80.5 187 L 81.5 189 L 80.5 187 Z " /><path fill="rgb(35,62,79)" stroke="rgb(35,62,79)" stroke-width="1" opacity="0.8980392156862745" d="M 305.5 188 L 306.5 190 L 305.5 188 Z " /><path fill="rgb(35,62,79)" stroke="rgb(35,62,79)" stroke-width="1" opacity="0.8980392156862745" d="M 108.5 189 L 109.5 191 L 108.5 189 Z " /><path fill="rgb(35,62,79)" stroke="rgb(35,62,79)" stroke-width="1" opacity="0.8980392156862745" d="M 93.5 190 L 95.5 193 L 93.5 190 Z " /><path fill="rgb(35,62,79)" stroke="rgb(35,62,79)" stroke-width="1" opacity="0.8980392156862745" d="M 118.5 191 L 119 194.5 L 118 194.5 L 118.5 191 Z " /><path fill="rgb(35,62,79)" stroke="rgb(35,62,79)" stroke-width="1" opacity="0.8980392156862745" d="M 64.5 192 L 67.5 196 L 64.5 192 Z " /><path fill="rgb(35,62,79)" stroke="rgb(35,62,79)" stroke-width="1" opacity="0.8980392156862745" d="M 80.5 192 L 82.5 195 L 80.5 192 Z " /><path fill="rgb(35,62,79)" stroke="rgb(35,62,79)" stroke-width="1" opacity="0.8980392156862745" d="M 98.5 194 L 100.5 197 L 98.5 194 Z " /><path fill="rgb(35,62,79)" stroke="rgb(35,62,79)" stroke-width="1" opacity="0.8980392156862745" d="M 316.5 195 L 317.5 197 L 316.5 195 Z " /><path fill="rgb(35,62,79)" stroke="rgb(35,62,79)" stroke-width="1" opacity="0.8980392156862745" d="M 85.5 196 L 86.5 198 L 85.5 196 Z " /><path fill="rgb(35,62,79)" stroke="rgb(35,62,79)" stroke-width="1" opacity="0.8980392156862745" d="M 119.5 196 L 122.5 200 L 119.5 196 Z " /><path fill="rgb(35,62,79)" stroke="rgb(35,62,79)" stroke-width="1" opacity="0.8980392156862745" d="M 308.5 196 Q 330.6 208.9 349 225.5 L 350.5 228 L 351.5 227 L 356 231.5 L 359.5 236 L 367 242.5 L 365.5 242 L 352 229.5 L 351.5 228 L 350.5 229 L 344.5 223 Q 328.5 209 309.5 198 L 308.5 196 Z " /><path fill="rgb(35,62,79)" stroke="rgb(35,62,79)" stroke-width="1" opacity="0.8980392156862745" d="M 70.5 197 L 72.5 200 L 70.5 197 Z " /><path fill="rgb(35,62,79)" stroke="rgb(35,62,79)" stroke-width="1" opacity="0.8980392156862745" d="M 102.5 197 L 103.5 199 L 102.5 197 Z " /><path fill="rgb(35,62,79)" stroke="rgb(35,62,79)" stroke-width="1" opacity="0.8980392156862745" d="M 319.5 197 L 320.5 199 L 319.5 197 Z " /><path fill="rgb(35,62,79)" stroke="rgb(35,62,79)" stroke-width="1" opacity="0.8980392156862745" d="M 185.5 198 L 179.5 205 L 185.5 198 Z " /><path fill="rgb(35,62,79)" stroke="rgb(35,62,79)" stroke-width="1" opacity="0.8980392156862745" d="M 89.5 199 L 90.5 201 L 89.5 199 Z " /><path fill="rgb(35,62,79)" stroke="rgb(35,62,79)" stroke-width="1" opacity="0.8980392156862745" d="M 322.5 199 L 323.5 201 L 322.5 199 Z " /><path fill="rgb(35,62,79)" stroke="rgb(35,62,79)" stroke-width="1" opacity="0.8980392156862745" d="M 106.5 200 L 107.5 202 L 106.5 200 Z " /><path fill="rgb(35,62,79)" stroke="rgb(35,62,79)" stroke-width="1" opacity="0.8980392156862745" d="M 92.5 201 L 94.5 204 L 92.5 201 Z " /><path fill="rgb(35,62,79)" stroke="rgb(35,62,79)" stroke-width="1" opacity="0.8980392156862745" d="M 306.5 201 L 312.5 204 L 332 219.5 L 333.5 222 L 334.5 221 L 338 224.5 L 341 228.5 L 337 225.5 L 335.5 223 L 334.5 224 L 328.5 218 L 306.5 202 L 306.5 201 Z " /><path fill="rgb(35,62,79)" stroke="rgb(35,62,79)" stroke-width="1" opacity="0.8980392156862745" d="M 325.5 201 L 326.5 203 L 325.5 201 Z " /><path fill="rgb(35,62,79)" stroke="rgb(35,62,79)" stroke-width="1" opacity="0.8980392156862745" d="M 76.5 202 L 78.5 205 L 76.5 202 Z " /><path fill="rgb(35,62,79)" stroke="rgb(35,62,79)" stroke-width="1" opacity="0.8980392156862745" d="M 109.5 202 L 110.5 204 L 109.5 202 Z " /><path fill="rgb(35,62,79)" stroke="rgb(35,62,79)" stroke-width="1" opacity="0.8980392156862745" d="M 129.5 203 L 130.5 205 L 129.5 203 Z " /><path fill="rgb(35,62,79)" stroke="rgb(35,62,79)" stroke-width="1" opacity="0.8980392156862745" d="M 328.5 203 L 329.5 205 L 328.5 203 Z " /><path fill="rgb(35,62,79)" stroke="rgb(35,62,79)" stroke-width="1" opacity="0.8980392156862745" d="M 96.5 204 L 97.5 206 L 96.5 204 Z " /><path fill="rgb(35,62,79)" stroke="rgb(35,62,79)" stroke-width="1" opacity="0.8980392156862745" d="M 112.5 204 L 113.5 206 L 112.5 204 Z " /><path fill="rgb(35,62,79)" stroke="rgb(35,62,79)" stroke-width="1" opacity="0.8980392156862745" d="M 81.5 206 L 82.5 208 L 81.5 206 Z " /><path fill="rgb(35,62,79)" stroke="rgb(35,62,79)" stroke-width="1" opacity="0.8980392156862745" d="M 134.5 206 L 135.5 208 L 134.5 206 Z " /><path fill="rgb(35,62,79)" stroke="rgb(35,62,79)" stroke-width="1" opacity="0.8980392156862745" d="M 176.5 206 L 175.5 208 L 176.5 206 Z " /><path fill="rgb(35,62,79)" stroke="rgb(35,62,79)" stroke-width="1" opacity="0.8980392156862745" d="M 332.5 206 L 333.5 208 L 332.5 206 Z " /><path fill="rgb(35,62,79)" stroke="rgb(35,62,79)" stroke-width="1" opacity="0.8980392156862745" d="M 100.5 207 L 101.5 209 L 100.5 207 Z " /><path fill="rgb(35,62,79)" stroke="rgb(35,62,79)" stroke-width="1" opacity="0.8980392156862745" d="M 117.5 207 L 118.5 209 L 117.5 207 Z " /><path fill="rgb(35,62,79)" stroke="rgb(35,62,79)" stroke-width="1" opacity="0.8980392156862745" d="M 173.5 208 L 172.5 210 L 173.5 208 Z " /><path fill="rgb(35,62,79)" stroke="rgb(35,62,79)" stroke-width="1" opacity="0.8980392156862745" d="M 335.5 208 L 336.5 210 L 335.5 208 Z " /><path fill="rgb(35,62,79)" stroke="rgb(35,62,79)" stroke-width="1" opacity="0.8980392156862745" d="M 85.5 209 L 87.5 212 L 85.5 209 Z " /><path fill="rgb(35,62,79)" stroke="rgb(35,62,79)" stroke-width="1" opacity="0.8980392156862745" d="M 103.5 209 L 104.5 211 L 103.5 209 Z " /><path fill="rgb(35,62,79)" stroke="rgb(35,62,79)" stroke-width="1" opacity="0.8980392156862745" d="M 120.5 209 L 121.5 211 L 120.5 209 Z " /><path fill="rgb(35,62,79)" stroke="rgb(35,62,79)" stroke-width="1" opacity="0.8980392156862745" d="M 338.5 210 L 339.5 212 L 338.5 210 Z " /><path fill="rgb(35,62,79)" stroke="rgb(35,62,79)" stroke-width="1" opacity="0.8980392156862745" d="M 106.5 211 L 107.5 213 L 106.5 211 Z " /><path fill="rgb(35,62,79)" stroke="rgb(35,62,79)" stroke-width="1" opacity="0.8980392156862745" d="M 168.5 211 L 167.5 213 L 166 212.5 L 168.5 211 Z " /><path fill="rgb(35,62,79)" stroke="rgb(35,62,79)" stroke-width="1" opacity="0.8980392156862745" d="M 309.5 211 L 311.5 214 L 309.5 211 Z " /><path fill="rgb(35,62,79)" stroke="rgb(35,62,79)" stroke-width="1" opacity="0.8980392156862745" d="M 89.5 212 L 91.5 215 L 89.5 212 Z " /><path fill="rgb(35,62,79)" stroke="rgb(35,62,79)" stroke-width="1" opacity="0.8980392156862745" d="M 109.5 213 L 110.5 215 L 109.5 213 Z " /><path fill="rgb(35,62,79)" stroke="rgb(35,62,79)" stroke-width="1" opacity="0.8980392156862745" d="M 148.5 213 L 151 213.5 L 148.5 214 L 148.5 213 Z " /><path fill="rgb(35,62,79)" stroke="rgb(35,62,79)" stroke-width="1" opacity="0.8980392156862745" d="M 161.5 213 L 164 213.5 L 161.5 214 L 161.5 213 Z " /><path fill="rgb(35,62,79)" stroke="rgb(35,62,79)" stroke-width="1" opacity="0.8980392156862745" d="M 342.5 213 L 343.5 215 L 342.5 213 Z " /><path fill="rgb(35,62,79)" stroke="rgb(35,62,79)" stroke-width="1" opacity="0.8980392156862745" d="M 128.5 214 L 129.5 216 L 128.5 214 Z " /><path fill="rgb(35,62,79)" stroke="rgb(35,62,79)" stroke-width="1" opacity="0.8980392156862745" d="M 93.5 215 L 94.5 217 L 93.5 215 Z " /><path fill="rgb(35,62,79)" stroke="rgb(35,62,79)" stroke-width="1" opacity="0.8980392156862745" d="M 304.5 215 L 305 226.5 L 304 226.5 L 304.5 215 Z " /><path fill="rgb(35,62,79)" stroke="rgb(35,62,79)" stroke-width="1" opacity="0.8980392156862745" d="M 314.5 215 L 316.5 218 L 314.5 215 Z " /><path fill="rgb(35,62,79)" stroke="rgb(35,62,79)" stroke-width="1" opacity="0.8980392156862745" d="M 346.5 216 L 347.5 218 L 346.5 216 Z " /><path fill="rgb(35,62,79)" stroke="rgb(35,62,79)" stroke-width="1" opacity="0.8980392156862745" d="M 96.5 217 L 97.5 219 L 96.5 217 Z " /><path fill="rgb(35,62,79)" stroke="rgb(35,62,79)" stroke-width="1" opacity="0.8980392156862745" d="M 133.5 217 L 134.5 219 L 133.5 217 Z " /><path fill="rgb(35,62,79)" stroke="rgb(35,62,79)" stroke-width="1" opacity="0.8980392156862745" d="M 349.5 218 L 352.5 222 L 349.5 218 Z " /><path fill="rgb(35,62,79)" stroke="rgb(35,62,79)" stroke-width="1" opacity="0.8980392156862745" d="M 99.5 219 L 100.5 221 L 99.5 219 Z " /><path fill="rgb(35,62,79)" stroke="rgb(35,62,79)" stroke-width="1" opacity="0.8980392156862745" d="M 120.5 220 L 121.5 222 L 120.5 220 Z " /><path fill="rgb(35,62,79)" stroke="rgb(35,62,79)" stroke-width="1" opacity="0.8980392156862745" d="M 138.5 220 L 139.5 222 L 138.5 220 Z " /><path fill="rgb(35,62,79)" stroke="rgb(35,62,79)" stroke-width="1" opacity="0.8980392156862745" d="M 320.5 220 L 322.5 223 L 320.5 220 Z " /><path fill="rgb(35,62,79)" stroke="rgb(35,62,79)" stroke-width="1" opacity="0.8980392156862745" d="M 102.5 221 L 103.5 223 L 102.5 221 Z " /><path fill="rgb(35,62,79)" stroke="rgb(35,62,79)" stroke-width="1" opacity="0.8980392156862745" d="M 105.5 223 L 106.5 225 L 105.5 223 Z " /><path fill="rgb(35,62,79)" stroke="rgb(35,62,79)" stroke-width="1" opacity="0.8980392156862745" d="M 125.5 223 L 126.5 225 L 125.5 223 Z " /><path fill="rgb(35,62,79)" stroke="rgb(35,62,79)" stroke-width="1" opacity="0.8980392156862745" d="M 356.5 224 L 361.5 230 L 356.5 224 Z " /><path fill="rgb(35,62,79)" stroke="rgb(35,62,79)" stroke-width="1" opacity="0.8980392156862745" d="M 108.5 225 L 109.5 227 L 108.5 225 Z " /><path fill="rgb(35,62,79)" stroke="rgb(35,62,79)" stroke-width="1" opacity="0.8980392156862745" d="M 147.5 225 L 148.5 227 L 147.5 225 Z " /><path fill="rgb(35,62,79)" stroke="rgb(35,62,79)" stroke-width="1" opacity="0.8980392156862745" d="M 326.5 225 L 337.5 237 L 326.5 225 Z " /><path fill="rgb(35,62,79)" stroke="rgb(35,62,79)" stroke-width="1" opacity="0.8980392156862745" d="M 130.5 226 L 131.5 228 L 130.5 226 Z " /><path fill="rgb(35,62,79)" stroke="rgb(35,62,79)" stroke-width="1" opacity="0.8980392156862745" d="M 342.5 228 L 349.5 236 L 342.5 228 Z " /><path fill="rgb(35,62,79)" stroke="rgb(35,62,79)" stroke-width="1" opacity="0.8980392156862745" d="M 137.5 230 L 138.5 232 L 137.5 230 Z " /><path fill="rgb(35,62,79)" stroke="rgb(35,62,79)" stroke-width="1" opacity="0.8980392156862745" d="M 303.5 230 L 304 232.5 L 303 232.5 L 303.5 230 Z " /><path fill="rgb(35,62,79)" stroke="rgb(35,62,79)" stroke-width="1" opacity="0.8980392156862745" d="M 111.5 232 L 112 234.5 L 111 234.5 L 111.5 232 Z " /><path fill="rgb(35,62,79)" stroke="rgb(35,62,79)" stroke-width="1" opacity="0.8980392156862745" d="M 119 233 L 121 233.5 L 119.5 236 L 119 233 Z " /><path fill="rgb(35,62,79)" stroke="rgb(35,62,79)" stroke-width="1" opacity="0.8980392156862745" d="M 144.5 234 L 148 236.5 L 146.5 236 L 144.5 234 Z " /><path fill="rgb(35,62,79)" stroke="rgb(35,62,79)" stroke-width="1" opacity="0.8980392156862745" d="M 124.5 235 L 125.5 237 L 124.5 235 Z " /><path fill="rgb(35,62,79)" stroke="rgb(35,62,79)" stroke-width="1" opacity="0.8980392156862745" d="M 302.5 235 L 303 237.5 L 302 237.5 L 302.5 235 Z " /><path fill="rgb(35,62,79)" stroke="rgb(35,62,79)" stroke-width="1" opacity="0.8980392156862745" d="M 348.5 237 L 350.5 237 L 355 241.5 L 351.5 239 L 350.5 240 L 348.5 237 Z " /><path fill="rgb(35,62,79)" stroke="rgb(35,62,79)" stroke-width="1" opacity="0.8980392156862745" d="M 339.5 239 L 341.5 242 L 339.5 239 Z " /><path fill="rgb(35,62,79)" stroke="rgb(35,62,79)" stroke-width="1" opacity="0.8980392156862745" d="M 133.5 240 L 137 242.5 L 135.5 242 L 133.5 240 Z " /><path fill="rgb(35,62,79)" stroke="rgb(35,62,79)" stroke-width="1" opacity="0.8980392156862745" d="M 352.5 242 L 353.5 244 L 352.5 242 Z " /><path fill="rgb(35,62,79)" stroke="rgb(35,62,79)" stroke-width="1" opacity="0.8980392156862745" d="M 183.5 243 L 187 244.5 L 185.5 245 L 183.5 243 Z " /><path fill="rgb(35,62,79)" stroke="rgb(35,62,79)" stroke-width="1" opacity="0.8980392156862745" d="M 342.5 243 L 343.5 245 L 342.5 243 Z " /><path fill="rgb(35,62,79)" stroke="rgb(35,62,79)" stroke-width="1" opacity="0.8980392156862745" d="M 355.5 243 L 356.5 245 L 355.5 243 Z " /><path fill="rgb(35,62,79)" stroke="rgb(35,62,79)" stroke-width="1" opacity="0.8980392156862745" d="M 375.5 243 L 377.5 246 L 375.5 243 Z " /><path fill="rgb(35,62,79)" stroke="rgb(35,62,79)" stroke-width="1" opacity="0.8980392156862745" d="M 144.5 246 L 148 248.5 L 146.5 248 L 144.5 246 Z " /><path fill="rgb(35,62,79)" stroke="rgb(35,62,79)" stroke-width="1" opacity="0.8980392156862745" d="M 358.5 248 L 361 252.5 L 360 252.5 L 358.5 248 Z " /><path fill="rgb(35,62,79)" stroke="rgb(35,62,79)" stroke-width="1" opacity="0.8980392156862745" d="M 380.5 249 L 382.5 252 L 380.5 249 Z " /><path fill="rgb(35,62,79)" stroke="rgb(35,62,79)" stroke-width="1" opacity="0.8980392156862745" d="M 175.5 250 L 179 251.5 L 177.5 252 L 175.5 250 Z " /><path fill="rgb(35,62,79)" stroke="rgb(35,62,79)" stroke-width="1" opacity="0.8980392156862745" d="M 383.5 253 L 384.5 255 L 383.5 253 Z " /><path fill="rgb(35,62,79)" stroke="rgb(35,62,79)" stroke-width="1" opacity="0.8980392156862745" d="M 161.5 255 L 163 257.5 L 155 264.5 L 162 256.5 L 161.5 255 Z " /><path fill="rgb(35,62,79)" stroke="rgb(35,62,79)" stroke-width="1" opacity="0.8980392156862745" d="M 295.5 255 L 296 256.5 L 294.5 259 L 294 257.5 L 295.5 255 Z " /><path fill="rgb(35,62,79)" stroke="rgb(35,62,79)" stroke-width="1" opacity="0.8980392156862745" d="M 385.5 256 L 388 260.5 L 387 260.5 L 385.5 256 Z " /><path fill="rgb(35,62,79)" stroke="rgb(35,62,79)" stroke-width="1" opacity="0.8980392156862745" d="M 130.5 258 L 136.5 265 L 130.5 258 Z " /><path fill="rgb(35,62,79)" stroke="rgb(35,62,79)" stroke-width="1" opacity="0.8980392156862745" d="M 346.5 258 L 347 259.5 L 345 260.5 L 346.5 258 Z " /><path fill="rgb(35,62,79)" stroke="rgb(35,62,79)" stroke-width="1" opacity="0.8980392156862745" d="M 362.5 258 L 363 263.5 L 362 263.5 L 362.5 258 Z " /><path fill="rgb(35,62,79)" stroke="rgb(35,62,79)" stroke-width="1" opacity="0.8980392156862745" d="M 121.5 260 L 122.5 262 L 121.5 260 Z " /><path fill="rgb(35,62,79)" stroke="rgb(35,62,79)" stroke-width="1" opacity="0.8980392156862745" d="M 344.5 262 L 342.5 265 L 344.5 262 Z " /><path fill="rgb(35,62,79)" stroke="rgb(35,62,79)" stroke-width="1" opacity="0.8980392156862745" d="M 138.5 265 L 139.5 267 L 138.5 265 Z " /><path fill="rgb(35,62,79)" stroke="rgb(35,62,79)" stroke-width="1" opacity="0.8980392156862745" d="M 125.5 266 L 126.5 268 L 125.5 266 Z " /><path fill="rgb(35,62,79)" stroke="rgb(35,62,79)" stroke-width="1" opacity="0.8980392156862745" d="M 357.5 266 L 356.5 268 L 357.5 266 Z " /><path fill="rgb(35,62,79)" stroke="rgb(35,62,79)" stroke-width="1" opacity="0.8980392156862745" d="M 148.5 267 L 151 267.5 L 148.5 268 L 148.5 267 Z " /><path fill="rgb(35,62,79)" stroke="rgb(35,62,79)" stroke-width="1" opacity="0.8980392156862745" d="M 293.5 267 L 298 267.5 L 293.5 268 L 293.5 267 Z " /><path fill="rgb(35,62,79)" stroke="rgb(35,62,79)" stroke-width="1" opacity="0.8980392156862745" d="M 304.5 268 L 327 268.5 L 304.5 269 L 304.5 268 Z " /><path fill="rgb(35,62,79)" stroke="rgb(35,62,79)" stroke-width="1" opacity="0.8980392156862745" d="M 127.5 269 L 129.5 272 L 127.5 269 Z " /><path fill="rgb(35,62,79)" stroke="rgb(35,62,79)" stroke-width="1" opacity="0.8980392156862745" d="M 355.5 269 L 354.5 271 L 355.5 269 Z " /><path fill="rgb(35,62,79)" stroke="rgb(35,62,79)" stroke-width="1" opacity="0.8980392156862745" d="M 360.5 269 L 359.5 271 L 360.5 269 Z " /><path fill="rgb(35,62,79)" stroke="rgb(35,62,79)" stroke-width="1" opacity="0.8980392156862745" d="M 391.5 271 L 392 277.5 L 391 277.5 L 391.5 271 Z " /><path fill="rgb(35,62,79)" stroke="rgb(35,62,79)" stroke-width="1" opacity="0.8980392156862745" d="M 351.5 272 L 350.5 274 L 347.5 275 L 347.5 274 L 351.5 272 Z " /><path fill="rgb(35,62,79)" stroke="rgb(35,62,79)" stroke-width="1" opacity="0.8980392156862745" d="M 131.5 274 L 145.5 289 L 131.5 274 Z " /><path fill="rgb(35,62,79)" stroke="rgb(35,62,79)" stroke-width="1" opacity="0.8980392156862745" d="M 355.5 274 L 354.5 276 L 355.5 274 Z " /><path fill="rgb(35,62,79)" stroke="rgb(35,62,79)" stroke-width="1" opacity="0.8980392156862745" d="M 282.5 276 L 285 276.5 L 282.5 277 L 282.5 276 Z " /><path fill="rgb(35,62,79)" stroke="rgb(35,62,79)" stroke-width="1" opacity="0.8980392156862745" d="M 287.5 277 L 290 277.5 L 287.5 278 L 287.5 277 Z " /><path fill="rgb(35,62,79)" stroke="rgb(35,62,79)" stroke-width="1" opacity="0.8980392156862745" d="M 293.5 278 L 297 278.5 L 293.5 279 L 293.5 278 Z " /><path fill="rgb(35,62,79)" stroke="rgb(35,62,79)" stroke-width="1" opacity="0.8980392156862745" d="M 334.5 278 L 337 278.5 L 334.5 279 L 334.5 278 Z " /><path fill="rgb(35,62,79)" stroke="rgb(35,62,79)" stroke-width="1" opacity="0.8980392156862745" d="M 303.5 279 L 310 279.5 L 303.5 280 L 303.5 279 Z " /><path fill="rgb(35,62,79)" stroke="rgb(35,62,79)" stroke-width="1" opacity="0.8980392156862745" d="M 325.5 279 L 332 279.5 L 325.5 280 L 325.5 279 Z " /><path fill="rgb(35,62,79)" stroke="rgb(35,62,79)" stroke-width="1" opacity="0.8980392156862745" d="M 333.5 281 L 337 281.5 L 333.5 282 L 333.5 281 Z " /><path fill="rgb(35,62,79)" stroke="rgb(35,62,79)" stroke-width="1" opacity="0.8980392156862745" d="M 323.5 282 L 329 282.5 L 323.5 283 L 323.5 282 Z " /><path fill="rgb(35,62,79)" stroke="rgb(35,62,79)" stroke-width="1" opacity="0.8980392156862745" d="M 309.5 283 L 318 283.5 L 309.5 284 L 309.5 283 Z " /><path fill="rgb(35,62,79)" stroke="rgb(35,62,79)" stroke-width="1" opacity="0.8980392156862745" d="M 278.5 285 L 281 285.5 L 278.5 286 L 278.5 285 Z " /><path fill="rgb(35,62,79)" stroke="rgb(35,62,79)" stroke-width="1" opacity="0.8980392156862745" d="M 388.5 285 L 381.5 293 L 388.5 285 Z " /><path fill="rgb(35,62,79)" stroke="rgb(35,62,79)" stroke-width="1" opacity="0.8980392156862745" d="M 308.5 286 L 311 286.5 L 308.5 287 L 308.5 286 Z " /><path fill="rgb(35,62,79)" stroke="rgb(35,62,79)" stroke-width="1" opacity="0.8980392156862745" d="M 312.5 287 L 315 287.5 L 312.5 288 L 312.5 287 Z " /><path fill="rgb(35,62,79)" stroke="rgb(35,62,79)" stroke-width="1" opacity="0.8980392156862745" d="M 292.5 288 L 295 288.5 L 292.5 289 L 292.5 288 Z " /><path fill="rgb(35,62,79)" stroke="rgb(35,62,79)" stroke-width="1" opacity="0.8980392156862745" d="M 317.5 288 L 320 288.5 L 317.5 289 L 317.5 288 Z " /><path fill="rgb(35,62,79)" stroke="rgb(35,62,79)" stroke-width="1" opacity="0.8980392156862745" d="M 298.5 289 L 301 289.5 L 298.5 290 L 298.5 289 Z " /><path fill="rgb(35,62,79)" stroke="rgb(35,62,79)" stroke-width="1" opacity="0.8980392156862745" d="M 322.5 289 L 326 289.5 L 322.5 290 L 322.5 289 Z " /><path fill="rgb(35,62,79)" stroke="rgb(35,62,79)" stroke-width="1" opacity="0.8980392156862745" d="M 148.5 290 L 149.5 292 L 148.5 290 Z " /><path fill="rgb(35,62,79)" stroke="rgb(35,62,79)" stroke-width="1" opacity="0.8980392156862745" d="M 303.5 290 L 307 290.5 L 303.5 291 L 303.5 290 Z " /><path fill="rgb(35,62,79)" stroke="rgb(35,62,79)" stroke-width="1" opacity="0.8980392156862745" d="M 330.5 290 L 336 290.5 L 330.5 291 L 330.5 290 Z " /><path fill="rgb(35,62,79)" stroke="rgb(35,62,79)" stroke-width="1" opacity="0.8980392156862745" d="M 309.5 291 L 315 291.5 L 309.5 292 L 309.5 291 Z " /><path fill="rgb(35,62,79)" stroke="rgb(35,62,79)" stroke-width="1" opacity="0.8980392156862745" d="M 343.5 291 Q 350.6 289.9 354 292.5 L 340.5 293 L 340.5 292 L 343.5 291 Z " /><path fill="rgb(35,62,79)" stroke="rgb(35,62,79)" stroke-width="1" opacity="0.8980392156862745" d="M 267.5 292 L 270 292.5 L 267.5 293 L 267.5 292 Z " /><path fill="rgb(35,62,79)" stroke="rgb(35,62,79)" stroke-width="1" opacity="0.8980392156862745" d="M 320.5 292 L 335 292.5 L 320.5 293 L 320.5 292 Z " /><path fill="rgb(35,62,79)" stroke="rgb(35,62,79)" stroke-width="1" opacity="0.8980392156862745" d="M 152.5 293 L 153.5 295 L 152.5 293 Z " /><path fill="rgb(35,62,79)" stroke="rgb(35,62,79)" stroke-width="1" opacity="0.8980392156862745" d="M 263.5 293 L 262.5 295 L 263.5 293 Z " /><path fill="rgb(35,62,79)" stroke="rgb(35,62,79)" stroke-width="1" opacity="0.8980392156862745" d="M 276.5 294 L 279 294.5 L 276.5 295 L 276.5 294 Z " /><path fill="rgb(35,62,79)" stroke="rgb(35,62,79)" stroke-width="1" opacity="0.8980392156862745" d="M 155.5 295 L 156.5 297 L 155.5 295 Z " /><path fill="rgb(35,62,79)" stroke="rgb(35,62,79)" stroke-width="1" opacity="0.8980392156862745" d="M 281.5 295 L 284 295.5 L 281.5 296 L 281.5 295 Z " /><path fill="rgb(35,62,79)" stroke="rgb(35,62,79)" stroke-width="1" opacity="0.8980392156862745" d="M 258.5 296 L 257.5 298 L 258.5 296 Z " /><path fill="rgb(35,62,79)" stroke="rgb(35,62,79)" stroke-width="1" opacity="0.8980392156862745" d="M 290.5 297 L 293 297.5 L 290.5 298 L 290.5 297 Z " /><path fill="rgb(35,62,79)" stroke="rgb(35,62,79)" stroke-width="1" opacity="0.8980392156862745" d="M 295.5 298 L 299 298.5 L 295.5 299 L 295.5 298 Z " /><path fill="rgb(35,62,79)" stroke="rgb(35,62,79)" stroke-width="1" opacity="0.8980392156862745" d="M 252.5 299 L 254 299.5 L 248.5 302 L 248.5 301 L 252.5 299 Z " /><path fill="rgb(35,62,79)" stroke="rgb(35,62,79)" stroke-width="1" opacity="0.8980392156862745" d="M 302.5 299 L 306 299.5 L 302.5 300 L 302.5 299 Z " /><path fill="rgb(35,62,79)" stroke="rgb(35,62,79)" stroke-width="1" opacity="0.8980392156862745" d="M 361.5 299 L 364 299.5 L 361.5 300 L 361.5 299 Z " /><path fill="rgb(35,62,79)" stroke="rgb(35,62,79)" stroke-width="1" opacity="0.8980392156862745" d="M 309.5 300 L 316 300.5 L 309.5 301 L 309.5 300 Z " /><path fill="rgb(35,62,79)" stroke="rgb(35,62,79)" stroke-width="1" opacity="0.8980392156862745" d="M 354.5 300 L 359 300.5 L 354.5 301 L 354.5 300 Z " /><path fill="rgb(35,62,79)" stroke="rgb(35,62,79)" stroke-width="1" opacity="0.8980392156862745" d="M 322.5 301 L 345 301.5 L 322.5 302 L 322.5 301 Z " /><path fill="rgb(35,62,79)" stroke="rgb(35,62,79)" stroke-width="1" opacity="0.8980392156862745" d="M 190.5 309 L 195 309.5 L 190.5 310 L 190.5 309 Z " /><path fill="rgb(35,62,79)" stroke="rgb(35,62,79)" stroke-width="1" opacity="0.8980392156862745" d="M 221.5 309 L 226 309.5 L 221.5 310 L 221.5 309 Z " /><path fill="rgb(43,76,97)" stroke="rgb(43,76,97)" stroke-width="1" opacity="0.996078431372549" d="M 192.5 0 L 211 0.5 L 183.5 2 L 162.5 6 Q 139.7 11.7 120.5 21 Q 79.9 40.9 52 73.5 Q 27.3 101.3 13 139.5 L 4 171.5 L 4 176.5 L 2 183.5 L 2 191.5 L 1 192.5 L 0.5 211 L 0 192.5 L 1 191.5 L 1 183.5 L 2 182.5 L 3 171.5 L 9 147.5 Q 16.3 125.3 27 106.5 Q 45.2 75.2 71.5 52 Q 95.4 30.9 126.5 17 L 154.5 7 L 171.5 3 L 176.5 3 L 183.5 1 L 191.5 1 L 192.5 0 Z " /><path fill="rgb(43,76,97)" stroke="rgb(43,76,97)" stroke-width="1" opacity="0.996078431372549" d="M 213.5 0 L 231.5 0 L 232.5 1 L 240.5 1 L 257.5 4 Q 279.3 8.7 297.5 17 Q 342 37 372 71.5 Q 398.2 100.8 413 141.5 L 420 166.5 L 423 183.5 L 424 210.5 L 423 210.5 L 423 192.5 L 422 191.5 L 422 183.5 L 421 182.5 L 420 171.5 L 415 151.5 L 403 120.5 Q 383.1 79.9 350.5 52 Q 322.7 27.3 284.5 13 L 252.5 4 L 247.5 4 L 240.5 2 L 232.5 2 L 231.5 1 L 213.5 1 L 213.5 0 Z " /><path fill="rgb(43,76,97)" stroke="rgb(43,76,97)" stroke-width="1" opacity="0.996078431372549" d="M 0.5 213 L 2 240.5 L 6 261.5 Q 11.7 284.3 21 303.5 Q 40.9 344.1 73.5 372 Q 101.3 396.7 139.5 411 L 171.5 420 L 176.5 420 L 183.5 422 L 191.5 422 L 192.5 423 L 211 423.5 L 192.5 424 L 191.5 423 L 183.5 423 L 182.5 422 L 171.5 421 L 147.5 415 Q 125.3 407.7 106.5 397 Q 75.2 378.8 52 352.5 Q 25.8 323.2 11 282.5 L 4 257.5 L 1 240.5 L 0.5 213 Z " /><path fill="rgb(43,76,97)" stroke="rgb(43,76,97)" stroke-width="1" opacity="0.996078431372549" d="M 423.5 213 L 424 231.5 L 423 232.5 L 423 240.5 L 422 241.5 L 421 252.5 L 415 276.5 Q 407.7 298.7 397 317.5 Q 378.8 348.8 352.5 372 Q 323.2 398.2 282.5 413 L 257.5 420 L 240.5 423 L 213.5 424 L 213.5 423 L 231.5 423 L 232.5 422 L 240.5 422 L 241.5 421 L 252.5 420 L 272.5 415 L 303.5 403 Q 344.1 383.1 372 350.5 Q 396.7 322.7 411 284.5 L 420 252.5 L 420 247.5 L 422 240.5 L 422 232.5 L 423 231.5 L 423.5 213 Z " /><path fill="rgb(43,76,97)" stroke="rgb(43,76,97)" stroke-width="1" opacity="1" d="M 211.5 0 L 213.5 1 L 240.5 2 L 261.5 6 Q 284.3 11.7 303.5 21 Q 344.1 40.9 372 73.5 Q 396.7 101.3 411 139.5 L 420 171.5 L 420 176.5 L 422 183.5 L 422 191.5 L 423 192.5 L 423 210.5 L 424 212.5 L 423 213.5 L 422 240.5 L 418 261.5 Q 412.3 284.3 403 303.5 Q 383.1 344.1 350.5 372 Q 322.7 396.7 284.5 411 L 252.5 420 L 247.5 420 L 240.5 422 L 232.5 422 L 231.5 423 L 213.5 423 L 211.5 424 L 210.5 423 L 183.5 422 L 162.5 418 Q 139.7 412.3 120.5 403 Q 79.9 383.1 52 350.5 Q 27.3 322.7 13 284.5 L 4 252.5 L 4 247.5 L 2 240.5 L 2 232.5 L 1 231.5 L 1 213.5 L 0 211.5 L 1 210.5 L 2 183.5 L 6 162.5 Q 11.7 139.7 21 120.5 Q 40.9 79.9 73.5 52 Q 101.3 27.3 139.5 13 L 171.5 4 L 176.5 4 L 183.5 2 L 191.5 2 L 192.5 1 L 210.5 1 L 211.5 0 Z M 58 119 L 44 123 L 38 127 Q 32 132 30 140 L 30 146 L 33 156 L 47 177 Q 74 204 108 225 L 111 231 L 111 235 L 116 251 Q 122 264 131 275 Q 152 301 191 310 L 226 310 Q 250 305 267 292 L 296 299 L 309 300 L 310 301 L 322 301 L 323 302 L 359 301 L 372 298 L 382 293 Q 390 288 392 278 L 392 272 L 388 260 L 378 246 L 350 218 L 302 186 L 292 168 L 281 153 Q 269 139 254 130 L 235 122 L 219 119 L 193 119 Q 191 121 187 120 L 175 123 L 158 131 L 153 131 L 128 124 L 105 120 L 95 120 L 94 119 L 58 119 Z " /><path fill="rgb(43,76,97)" stroke="rgb(43,76,97)" stroke-width="1" opacity="1" d="M 197.5 126 L 210.5 127 Q 219.2 129.8 224 136.5 L 226 140.5 L 226 153.5 L 222 162.5 L 186.5 198 Q 177.8 207.3 165.5 213 L 151.5 214 Q 131.9 208.1 119 195.5 L 119 190.5 L 126 172.5 Q 132.7 159.7 142.5 150 Q 154 139 169.5 132 L 184.5 127 L 196.5 127 L 197.5 126 Z " /><path fill="rgb(43,76,97)" stroke="rgb(43,76,97)" stroke-width="1" opacity="1" d="M 80.5 133 L 96 133.5 L 87.5 134 L 75.5 137 L 67 144.5 Q 64.3 148.3 66 156.5 Q 74.7 176.3 90.5 189 L 113.5 206 L 148.5 227 L 185.5 245 L 212.5 256 L 257.5 271 L 277.5 276 L 293.5 279 L 302.5 279 L 303.5 280 L 331.5 280 L 348.5 275 L 356 269.5 Q 360.9 265.4 359 254.5 L 354 243.5 L 338 225.5 L 350 236.5 Q 357.6 244.4 362 255.5 L 362 265.5 L 356.5 274 L 346.5 279 L 338.5 281 L 323.5 282 L 322.5 283 L 309.5 283 L 306 284 Q 304.9 286.7 307.5 286 L 322.5 290 L 343 291.5 L 335.5 293 L 334.5 292 L 307.5 291 L 276.5 285 L 238.5 275 L 187.5 256 Q 150.4 239.6 117.5 219 Q 84 198.5 57 171.5 L 48 159.5 L 51 161.5 L 63.5 175 L 86 191 L 67 166.5 L 62 155.5 L 62 145.5 L 67.5 138 L 80.5 133 Z " /><path fill="rgb(43,76,97)" stroke="rgb(43,76,97)" stroke-width="1" opacity="1" d="M 103.5 133 L 110 133.5 L 103.5 134 L 103.5 133 Z " /><path fill="rgb(43,76,97)" stroke="rgb(43,76,97)" stroke-width="1" opacity="1" d="M 117.5 134 L 121 134.5 L 117.5 135 L 117.5 134 Z " /><path fill="rgb(43,76,97)" stroke="rgb(43,76,97)" stroke-width="1" opacity="1" d="M 130.5 136 L 133 136.5 L 130.5 137 L 130.5 136 Z " /><path fill="rgb(43,76,97)" stroke="rgb(43,76,97)" stroke-width="1" opacity="1" d="M 134.5 137 L 137 137.5 L 134.5 138 L 134.5 137 Z " /><path fill="rgb(43,76,97)" stroke="rgb(43,76,97)" stroke-width="1" opacity="1" d="M 103.5 143 L 105.5 144 L 122.5 144 L 135 146 L 120 168.5 L 110.5 191 L 86 168.5 Q 80.2 163.3 79 153.5 L 82.5 148 L 92.5 144 L 102.5 144 L 103.5 143 Z " /><path fill="rgb(43,76,97)" stroke="rgb(43,76,97)" stroke-width="1" opacity="1" d="M 305 210 Q 324.5 221.3 339 238.5 L 346 249.5 L 347 257.5 L 341.5 265 L 331.5 268 L 298.5 268 L 297.5 267 L 291 267 L 302 241.5 L 305 226.5 L 305 210 Z " /><path fill="rgb(43,76,97)" stroke="rgb(43,76,97)" stroke-width="1" opacity="1" d="M 332.5 220 L 336.5 225 L 332.5 220 Z " /><path fill="rgb(43,76,97)" stroke="rgb(43,76,97)" stroke-width="1" opacity="1" d="M 349.5 226 L 351.5 229 L 349.5 226 Z " /><path fill="rgb(43,76,97)" stroke="rgb(43,76,97)" stroke-width="1" opacity="1" d="M 356.5 232 L 359.5 236 L 356.5 232 Z " /><path fill="rgb(43,76,97)" stroke="rgb(43,76,97)" stroke-width="1" opacity="1" d="M 120 234 L 162 256.5 L 153.5 266 L 144.5 268 Q 134.1 264.9 129 256.5 Q 122.6 246.6 120 234 Z " /><path fill="rgb(9,17,22)" stroke="rgb(9,17,22)" stroke-width="1" opacity="1" d="M 63.5 119 L 84 119.5 L 63.5 120 L 63.5 119 Z " /><path fill="rgb(9,17,22)" stroke="rgb(9,17,22)" stroke-width="1" opacity="1" d="M 200.5 119 L 214.5 119 L 223 120.5 L 215.5 121 L 214.5 120 L 200.5 120 L 200.5 119 Z " /><path fill="rgb(9,17,22)" stroke="rgb(9,17,22)" stroke-width="1" opacity="1" d="M 54.5 120 L 62 120.5 Q 44.5 121 36 130.5 Q 30.2 135.2 32 147.5 L 34 154.5 L 43 169.5 L 60.5 188 L 88.5 211 L 112 227.5 L 114 239.5 L 122 259.5 Q 132 276 146.5 288 Q 162.5 301.5 186 307.5 L 183.5 308 Q 149 298 130 272.5 L 117 251.5 L 111 228.5 L 108.5 225 Q 73.2 203.8 46 174.5 L 33 154.5 L 31 147.5 L 31 137.5 Q 33.6 130.1 39.5 126 L 54.5 120 Z " /><path fill="rgb(9,17,22)" stroke="rgb(9,17,22)" stroke-width="1" opacity="1" d="M 85.5 120 L 100 120.5 L 85.5 121 L 85.5 120 Z " /><path fill="rgb(9,17,22)" stroke="rgb(9,17,22)" stroke-width="1" opacity="1" d="M 189.5 120 L 199 120.5 L 189.5 121 L 189.5 120 Z " /><path fill="rgb(9,17,22)" stroke="rgb(9,17,22)" stroke-width="1" opacity="1" d="M 101.5 121 L 108 121.5 L 101.5 122 L 101.5 121 Z " /><path fill="rgb(9,17,22)" stroke="rgb(9,17,22)" stroke-width="1" opacity="1" d="M 183.5 121 L 188 121.5 L 173.5 125 L 154.5 133 L 154.5 132 L 183.5 121 Z " /><path fill="rgb(9,17,22)" stroke="rgb(9,17,22)" stroke-width="1" opacity="1" d="M 224.5 121 L 232 122.5 L 228.5 123 L 224.5 122 L 224.5 121 Z " /><path fill="rgb(9,17,22)" stroke="rgb(9,17,22)" stroke-width="1" opacity="1" d="M 109.5 122 L 115 122.5 L 109.5 123 L 109.5 122 Z " /><path fill="rgb(9,17,22)" stroke="rgb(9,17,22)" stroke-width="1" opacity="1" d="M 116.5 123 L 120 123.5 L 116.5 124 L 116.5 123 Z " /><path fill="rgb(9,17,22)" stroke="rgb(9,17,22)" stroke-width="1" opacity="1" d="M 233.5 123 Q 265.2 132.3 283 155.5 Q 293 167.5 299 183.5 L 303.5 188 L 348.5 218 L 375 242.5 Q 384.4 252.1 390 265.5 Q 392.3 270.2 391 278.5 L 390 278.5 L 390 268.5 L 384 255.5 Q 371.2 237.8 354.5 224 Q 328.3 203.3 299 185.5 Q 288.9 159.6 269.5 143 L 252.5 131 L 233.5 124 L 233.5 123 Z " /><path fill="rgb(9,17,22)" stroke="rgb(9,17,22)" stroke-width="1" opacity="1" d="M 121.5 124 L 134 126.5 L 130.5 127 L 121.5 125 L 121.5 124 Z " /><path fill="rgb(9,17,22)" stroke="rgb(9,17,22)" stroke-width="1" opacity="1" d="M 186.5 125 L 207.5 125 L 212.5 126 Q 220.3 129.3 225 135.5 L 227 140.5 L 226 140.5 Q 224.5 134 219.5 131 L 212.5 127 L 207.5 126 L 186.5 126 Q 153.9 133.9 136 156.5 Q 127.7 166.2 122.5 179 L 122 177.5 L 126 169.5 L 140 150 L 158.5 136 Q 170.6 128.6 186.5 125 Z " /><path fill="rgb(9,17,22)" stroke="rgb(9,17,22)" stroke-width="1" opacity="1" d="M 135.5 127 L 153 131.5 L 150.5 132 L 135.5 128 L 135.5 127 Z " /><path fill="rgb(9,17,22)" stroke="rgb(9,17,22)" stroke-width="1" opacity="1" d="M 84.5 131 L 102 131.5 L 84.5 132 L 75.5 134 L 75.5 133 L 84.5 131 Z " /><path fill="rgb(9,17,22)" stroke="rgb(9,17,22)" stroke-width="1" opacity="1" d="M 103.5 132 L 117 132.5 L 103.5 133 L 103.5 132 Z " /><path fill="rgb(9,17,22)" stroke="rgb(9,17,22)" stroke-width="1" opacity="1" d="M 118.5 133 L 130.5 134 L 145 138 L 143.5 141 L 122 136.5 L 126.5 136 L 141.5 139 L 141.5 138 L 130.5 135 L 118.5 134 L 118.5 133 Z " /><path fill="rgb(9,17,22)" stroke="rgb(9,17,22)" stroke-width="1" opacity="1" d="M 72.5 134 L 74 134.5 Q 66.7 136.7 63 142.5 Q 59.8 145.8 61 153.5 L 67 167.5 L 84 188.5 L 82.5 189 Q 64.1 176.9 50 160.5 L 46.5 156 L 46 157.5 Q 56.2 173.3 70.5 185 Q 134.3 238.7 221 269.5 L 219.5 270 Q 168 251.5 124.5 225 Q 86.3 202.7 56 172.5 L 45 157.5 L 43 151.5 L 47 154.5 L 64.5 174 L 78.5 185 L 79 183.5 L 66 167.5 L 60 153.5 L 60 146.5 L 66.5 137 L 72.5 134 Z " /><path fill="rgb(9,17,22)" stroke="rgb(9,17,22)" stroke-width="1" opacity="1" d="M 90.5 134 L 111.5 134 L 112.5 135 L 121 135.5 L 112.5 136 L 111.5 135 L 90.5 135 L 90.5 134 Z " /><path fill="rgb(9,17,22)" stroke="rgb(9,17,22)" stroke-width="1" opacity="1" d="M 85.5 135 L 89 135.5 L 85.5 136 L 85.5 135 Z " /><path fill="rgb(9,17,22)" stroke="rgb(9,17,22)" stroke-width="1" opacity="1" d="M 80.5 136 L 84 136.5 Q 72.9 137.9 68 145.5 L 67 153.5 L 71 164.5 Q 79.5 178 91.5 188 Q 145.4 230.1 216 255.5 L 214.5 256 Q 175.1 241.4 140.5 222 L 105.5 200 Q 90.1 189.4 78 175.5 L 68 160.5 L 66 153.5 L 66 147.5 L 71.5 140 L 80.5 136 Z " /><path fill="rgb(9,17,22)" stroke="rgb(9,17,22)" stroke-width="1" opacity="1" d="M 94.5 142 L 118 142.5 L 94.5 143 L 94.5 142 Z " /><path fill="rgb(9,17,22)" stroke="rgb(9,17,22)" stroke-width="1" opacity="1" d="M 227.5 142 L 228 149.5 L 227 149.5 L 227.5 142 Z " /><path fill="rgb(9,17,22)" stroke="rgb(9,17,22)" stroke-width="1" opacity="1" d="M 90.5 143 L 93 143.5 L 90.5 144 L 90.5 143 Z " /><path fill="rgb(9,17,22)" stroke="rgb(9,17,22)" stroke-width="1" opacity="1" d="M 119.5 143 L 127 143.5 L 119.5 144 L 119.5 143 Z " /><path fill="rgb(9,17,22)" stroke="rgb(9,17,22)" stroke-width="1" opacity="1" d="M 86.5 144 L 89 144.5 L 81 148 L 79 151.5 L 79 157.5 L 83 165.5 L 99.5 183 L 109.5 191 L 112 191 L 120 169.5 L 136 146.5 L 128 144.5 L 133.5 144 L 137 145 L 136 148.5 L 121 169.5 L 111.5 192 Q 95.8 184.2 86 170.5 L 78 157.5 L 78 151.5 L 81.5 147 L 86.5 144 Z " /><path fill="rgb(9,17,22)" stroke="rgb(9,17,22)" stroke-width="1" opacity="1" d="M 226.5 151 L 227 155.5 L 223 163.5 L 187.5 199 Q 178.9 207.9 167.5 214 Q 160.4 216.4 149.5 215 L 149.5 214 L 163.5 214 L 175.5 208 L 220 165.5 L 225 158.5 L 226.5 151 Z " /><path fill="rgb(9,17,22)" stroke="rgb(9,17,22)" stroke-width="1" opacity="1" d="M 121.5 180 L 122 181.5 L 118.5 191 L 118 188.5 L 121.5 180 Z " /><path fill="rgb(9,17,22)" stroke="rgb(9,17,22)" stroke-width="1" opacity="1" d="M 117.5 192 Q 118.4 197.6 122.5 200 Q 133.8 208.2 148 213.5 L 145.5 214 L 125.5 203 L 118 196.5 L 117.5 192 Z " /><path fill="rgb(9,17,22)" stroke="rgb(9,17,22)" stroke-width="1" opacity="1" d="M 303 193 Q 335.7 209.5 361 234.5 L 373 249 L 367.5 246 L 339.5 220 L 303 194.5 L 303 193 Z M 315 200 L 316 202 L 317 202 L 315 200 Z M 318 202 L 319 204 L 320 204 L 318 202 Z M 321 204 L 322 206 L 323 206 L 321 204 Z M 325 207 L 326 209 L 327 209 L 325 207 Z M 328 209 L 329 211 L 330 211 L 328 209 Z M 332 212 L 334 215 L 335 215 L 332 212 Z M 336 215 L 344 223 L 345 223 L 336 215 Z M 346 223 L 365 242 L 366 242 Q 358 230 346 223 Z " /><path fill="rgb(9,17,22)" stroke="rgb(9,17,22)" stroke-width="1" opacity="1" d="M 304 199 L 306.5 199 L 328.5 215 L 351 235.5 L 362 251.5 L 364 258.5 L 364 263.5 Q 362.5 271.1 357.5 275 Q 349.9 280.9 337.5 282 L 337.5 281 Q 353.8 279.8 361 269.5 L 363 263.5 L 363 258.5 Q 356.8 239.2 342.5 228 Q 327 213.5 308.5 202 L 310.5 205 Q 331.6 218.4 348 236.5 Q 354 242.5 357 251.5 L 356 251.5 L 350 240.5 L 336.5 226 L 304 200.5 L 304 199 Z " /><path fill="rgb(9,17,22)" stroke="rgb(9,17,22)" stroke-width="1" opacity="1" d="M 304 208 L 306.5 208 L 318.5 217 L 340 237.5 L 348 250.5 L 348 254.5 L 347 254.5 L 347 250.5 L 342 241.5 L 326.5 225 L 305.5 209 L 304.5 215 L 304 208 Z " /><path fill="rgb(9,17,22)" stroke="rgb(9,17,22)" stroke-width="1" opacity="1" d="M 303.5 217 L 304 229.5 L 303 229.5 L 303.5 217 Z " /><path fill="rgb(9,17,22)" stroke="rgb(9,17,22)" stroke-width="1" opacity="1" d="M 302.5 231 L 303 234.5 L 302 234.5 L 302.5 231 Z " /><path fill="rgb(9,17,22)" stroke="rgb(9,17,22)" stroke-width="1" opacity="1" d="M 118 232 L 124.5 234 Q 143 246.5 164 255 L 164 257.5 L 154.5 267 Q 150.8 270.3 142.5 269 L 137.5 267 L 128 257.5 L 119 238.5 L 118 232 Z M 119 233 Q 122 248 130 259 Q 134 265 143 268 Q 152 270 156 265 L 163 257 L 119 233 Z " /><path fill="rgb(9,17,22)" stroke="rgb(9,17,22)" stroke-width="1" opacity="1" d="M 301.5 236 L 302 239.5 L 290 266.5 L 293.5 268 L 304 268.5 L 293.5 269 L 289 268 L 298 248.5 L 301.5 236 Z " /><path fill="rgb(9,17,22)" stroke="rgb(9,17,22)" stroke-width="1" opacity="1" d="M 217.5 256 L 259.5 270 L 279.5 275 L 296 277.5 L 290.5 278 L 259.5 271 L 219.5 258 L 217.5 256 Z " /><path fill="rgb(9,17,22)" stroke="rgb(9,17,22)" stroke-width="1" opacity="1" d="M 347.5 256 L 348 259.5 L 342.5 266 L 333.5 269 L 327.5 269 L 327.5 268 Q 339.5 268.5 345 262.5 L 347.5 256 Z " /><path fill="rgb(9,17,22)" stroke="rgb(9,17,22)" stroke-width="1" opacity="1" d="M 358.5 256 L 359 262.5 L 358 262.5 L 358.5 256 Z " /><path fill="rgb(9,17,22)" stroke="rgb(9,17,22)" stroke-width="1" opacity="1" d="M 357.5 264 L 358 265.5 L 352.5 272 L 340.5 277 L 340.5 276 L 352.5 271 L 355 268.5 L 357.5 264 Z " /><path fill="rgb(9,17,22)" stroke="rgb(9,17,22)" stroke-width="1" opacity="1" d="M 305.5 269 L 326 269.5 L 305.5 270 L 305.5 269 Z " /><path fill="rgb(9,17,22)" stroke="rgb(9,17,22)" stroke-width="1" opacity="1" d="M 222.5 270 L 236 274.5 L 233.5 275 L 222.5 271 L 222.5 270 Z " /><path fill="rgb(9,17,22)" stroke="rgb(9,17,22)" stroke-width="1" opacity="1" d="M 237.5 275 L 292 288.5 L 288.5 289 L 250.5 280 L 237.5 276 L 237.5 275 Z " /><path fill="rgb(9,17,22)" stroke="rgb(9,17,22)" stroke-width="1" opacity="1" d="M 335.5 277 L 339 277.5 L 335.5 278 L 335.5 277 Z " /><path fill="rgb(9,17,22)" stroke="rgb(9,17,22)" stroke-width="1" opacity="1" d="M 297.5 278 L 309 278.5 L 297.5 279 L 297.5 278 Z " /><path fill="rgb(9,17,22)" stroke="rgb(9,17,22)" stroke-width="1" opacity="1" d="M 326.5 278 L 334 278.5 L 326.5 279 L 326.5 278 Z " /><path fill="rgb(9,17,22)" stroke="rgb(9,17,22)" stroke-width="1" opacity="1" d="M 310.5 279 L 325 279.5 L 310.5 280 L 310.5 279 Z " /><path fill="rgb(9,17,22)" stroke="rgb(9,17,22)" stroke-width="1" opacity="1" d="M 389.5 280 L 390 281.5 L 389 284.5 L 380.5 293 L 367.5 298 L 367.5 297 Q 381.4 294.4 388 284.5 L 389.5 280 Z " /><path fill="rgb(9,17,22)" stroke="rgb(9,17,22)" stroke-width="1" opacity="1" d="M 329.5 282 L 336 282.5 L 328.5 284 L 318.5 284 L 318.5 283 L 328.5 283 L 329.5 282 Z " /><path fill="rgb(9,17,22)" stroke="rgb(9,17,22)" stroke-width="1" opacity="1" d="M 307 284 L 317 284.5 L 307 286 L 307 284 Z " /><path fill="rgb(9,17,22)" stroke="rgb(9,17,22)" stroke-width="1" opacity="1" d="M 311.5 286 L 335 289.5 L 326.5 290 L 311.5 287 L 311.5 286 Z " /><path fill="rgb(9,17,22)" stroke="rgb(9,17,22)" stroke-width="1" opacity="1" d="M 293.5 289 L 303 290.5 L 298.5 291 L 293.5 290 L 293.5 289 Z " /><path fill="rgb(9,17,22)" stroke="rgb(9,17,22)" stroke-width="1" opacity="1" d="M 336.5 290 L 350 290.5 L 336.5 291 L 336.5 290 Z " /><path fill="rgb(9,17,22)" stroke="rgb(9,17,22)" stroke-width="1" opacity="1" d="M 265.5 291 L 283 294.5 L 279.5 295 L 265.5 292 L 243.5 304 L 229.5 308 L 229.5 307 L 243.5 303 L 265.5 291 Z " /><path fill="rgb(9,17,22)" stroke="rgb(9,17,22)" stroke-width="1" opacity="1" d="M 304.5 291 L 309 291.5 L 304.5 292 L 304.5 291 Z " /><path fill="rgb(9,17,22)" stroke="rgb(9,17,22)" stroke-width="1" opacity="1" d="M 351.5 291 Q 359.1 289.5 358 293 L 354.5 294 L 320.5 294 L 319.5 293 L 310 292.5 L 319.5 292 L 320.5 293 L 353.5 293 L 353.5 292 Q 350.5 292.5 351.5 291 Z " /><path fill="rgb(9,17,22)" stroke="rgb(9,17,22)" stroke-width="1" opacity="1" d="M 284.5 295 L 305 298.5 L 299.5 299 L 284.5 296 L 284.5 295 Z " /><path fill="rgb(9,17,22)" stroke="rgb(9,17,22)" stroke-width="1" opacity="1" d="M 362.5 298 L 366 298.5 L 362.5 299 L 362.5 298 Z " /><path fill="rgb(9,17,22)" stroke="rgb(9,17,22)" stroke-width="1" opacity="1" d="M 306.5 299 L 315 299.5 L 306.5 300 L 306.5 299 Z " /><path fill="rgb(9,17,22)" stroke="rgb(9,17,22)" stroke-width="1" opacity="1" d="M 354.5 299 L 361 299.5 L 353.5 301 L 316.5 301 L 316.5 300 L 353.5 300 L 354.5 299 Z " /><path fill="rgb(9,17,22)" stroke="rgb(9,17,22)" stroke-width="1" opacity="1" d="M 187.5 308 L 194 308.5 L 187.5 309 L 187.5 308 Z " /><path fill="rgb(9,17,22)" stroke="rgb(9,17,22)" stroke-width="1" opacity="1" d="M 223.5 308 L 228 308.5 L 223.5 309 L 223.5 308 Z " /><path fill="rgb(9,17,22)" stroke="rgb(9,17,22)" stroke-width="1" opacity="1" d="M 195.5 309 L 221 309.5 L 195.5 310 L 195.5 309 Z " /><path fill="rgb(0,0,0)" stroke="rgb(0,0,0)" stroke-width="1" opacity="1" d="M 62.5 120 L 84.5 120 L 85.5 121 L 108.5 122 L 134.5 127 L 155.5 133 L 183.5 122 L 198.5 121 L 199.5 120 L 214.5 120 L 215.5 121 L 223.5 121 Q 226.4 123.6 232.5 123 L 252.5 131 Q 268.4 140.1 280 153.5 L 291 168.5 L 300.5 187 L 348.5 219 L 377 246.5 Q 384.6 254.4 389 265.5 Q 391.4 270.6 390 279.5 Q 387.6 288.1 380.5 292 L 366.5 298 L 354.5 299 L 353.5 300 L 315.5 300 L 314.5 299 L 305.5 299 L 304.5 298 L 293.5 297 L 265.5 291 Q 249.8 302.3 228.5 308 Q 223.7 306.8 222.5 309 L 194.5 309 Q 153.2 301.3 132 273.5 L 118 251.5 L 114 239.5 L 112 227.5 L 108.5 224 Q 74.6 203.4 48 175.5 L 34 154.5 L 32 147.5 L 32 137.5 L 38.5 128 L 47.5 123 L 62.5 120 Z M 187 125 Q 171 129 159 136 L 140 150 L 126 170 L 117 193 L 118 197 Q 131 209 150 215 Q 160 216 168 214 Q 179 208 188 199 L 223 164 L 226 159 L 228 150 Q 229 140 225 136 Q 220 129 213 126 L 208 125 L 187 125 Z M 85 131 L 73 134 L 67 137 L 60 147 L 60 154 L 66 168 L 79 184 L 79 185 L 65 174 L 47 155 L 43 152 L 45 158 L 56 173 Q 84 201 120 222 Q 147 239 178 253 L 211 267 L 244 278 L 279 287 L 311 293 L 320 293 L 321 294 L 355 294 L 356 293 Q 359 294 358 291 L 327 289 L 310 286 L 341 282 Q 351 280 358 275 Q 363 271 364 264 L 364 259 L 362 252 L 351 236 Q 331 215 307 199 Q 303 198 304 201 L 337 226 L 353 245 L 358 256 Q 360 265 355 269 L 353 271 L 340 277 L 327 278 L 326 279 L 297 278 L 285 275 L 280 275 L 260 270 L 217 256 Q 182 243 152 227 L 112 203 L 92 188 Q 80 178 71 165 L 67 154 L 68 146 L 78 138 L 90 135 L 122 136 L 144 141 L 145 138 L 131 134 L 118 133 L 117 132 L 85 131 Z M 95 142 L 87 144 L 82 147 L 78 152 L 78 158 L 86 171 Q 96 184 112 192 L 121 170 L 136 149 L 137 145 L 127 143 L 119 143 L 118 142 L 95 142 Z M 303 193 L 303 195 L 340 220 L 368 246 L 373 249 L 361 235 Q 336 210 303 193 Z M 304 208 L 303 231 L 301 240 L 289 268 Q 295 270 305 269 L 306 270 L 326 270 Q 327 267 334 269 L 343 266 L 348 260 L 348 251 L 340 238 L 319 217 L 307 208 L 304 208 Z M 118 232 L 119 239 L 128 258 L 138 267 L 143 269 Q 151 270 155 267 L 164 258 L 164 255 Q 143 246 125 234 L 118 232 Z " /></svg>