<svg width="512" height="512" version="1.1" xmlns="http://www.w3.org/2000/svg" desc="Created with imagetracer.js version 1.2.6" ><path fill="rgb(212,208,162)" stroke="rgb(212,208,162)" stroke-width="1" opacity="1" d="M 246 20 L 266 20 L 266 80 L 246 80 L 246 20 Z " /><path fill="rgb(212,208,162)" stroke="rgb(212,208,162)" stroke-width="1" opacity="1" d="M 188 100 L 323.5 100 L 324 100.5 L 324 120 L 188.5 120 L 188 119.5 L 188 100 Z " /><path fill="rgb(212,208,162)" stroke="rgb(212,208,162)" stroke-width="1" opacity="1" d="M 146 140 L 365.5 140 L 366 140.5 L 366 160 L 146.5 160 L 146 159.5 L 146 140 Z " /><path fill="rgb(212,208,162)" stroke="rgb(212,208,162)" stroke-width="1" opacity="1" d="M 116 180 L 219 180.5 L 116.5 243 L 116 180 Z " /><path fill="rgb(212,208,162)" stroke="rgb(212,208,162)" stroke-width="1" opacity="1" d="M 293.5 180 L 396 180 L 396 242.5 L 393.5 241 L 296.5 183 L 293.5 180 Z " /><path fill="rgb(0,0,0)" stroke="rgb(0,0,0)" stroke-width="1" opacity="0" d="M 0 0 L 233 0.5 L 228 3.5 L 226 7.5 L 226 80 L 174.5 80 L 169 84.5 L 167 89.5 L 167 120 L 133.5 120 L 128 123.5 L 126 127.5 L 126 160 L 103.5 160 L 98 163.5 L 96 167.5 L 96 254.5 L 93.5 257 L 45 286.5 Q 42 289.5 43 296.5 L 95 469.5 L 93.5 469 L 76.5 465 L 56.5 465 Q 39.5 468 27.5 476 L 2 495.5 L 0.5 499 L 0 0 Z " /><path fill="rgb(0,0,0)" stroke="rgb(0,0,0)" stroke-width="1" opacity="0" d="M 279.5 0 L 512 0 L 512 458.5 L 511 458.5 L 508.5 454 Q 505.8 451.2 499.5 452 L 479.5 468 L 465.5 476 L 453.5 479 L 440.5 479 L 427.5 476 L 417 470.5 L 449 360.5 L 458 333.5 L 460 323.5 L 469 296.5 L 469 290.5 L 465.5 285 L 416 254.5 L 416 167.5 L 412.5 162 L 408.5 160 L 386 160 L 386 127.5 L 382.5 122 L 378.5 120 L 345 120 L 345 89.5 Q 343.8 83.8 339.5 81 L 337.5 80 L 286 80 L 286 7.5 L 282.5 2 Q 278.8 1.7 279.5 0 Z " /><path fill="rgb(0,0,0)" stroke="rgb(0,0,0)" stroke-width="1" opacity="0" d="M 511.5 465 L 512 512 L 13 511.5 L 35.5 495 L 47.5 489 L 62.5 485 L 73.5 485 L 85.5 488 Q 100.7 497.3 120.5 502 L 125.5 503 L 148.5 503 L 165.5 498 Q 180.9 487.9 200.5 482 L 211.5 480 L 219.5 480 L 237.5 485 L 270.5 501 L 282.5 504 L 300.5 505 L 322.5 500 L 349.5 486 L 360.5 482 L 370.5 480 L 377.5 480 L 398.5 485 L 419.5 495 L 430.5 498 Q 435.2 496.8 436.5 499 L 455.5 499 L 465.5 497 L 482.5 490 L 510 468.5 L 511.5 465 Z " /><path fill="rgb(0,0,0)" stroke="rgb(0,0,0)" stroke-width="1" opacity="0" d="M 0.5 505 L 3.5 510 L 7 511.5 L 0 512 L 0.5 505 Z " /><path fill="rgb(0,0,0)" stroke="rgb(0,0,0)" stroke-width="1" opacity="0.7725490196078432" d="M 229.5 2 L 228.5 4 L 229.5 2 Z " /><path fill="rgb(0,0,0)" stroke="rgb(0,0,0)" stroke-width="1" opacity="0.7725490196078432" d="M 282.5 2 L 283.5 4 L 282.5 2 Z " /><path fill="rgb(0,0,0)" stroke="rgb(0,0,0)" stroke-width="1" opacity="0.7725490196078432" d="M 174.5 80 L 177 80.5 L 174.5 81 L 174.5 80 Z " /><path fill="rgb(0,0,0)" stroke="rgb(0,0,0)" stroke-width="1" opacity="0.7725490196078432" d="M 335.5 80 L 338 80.5 L 335.5 81 L 335.5 80 Z " /><path fill="rgb(0,0,0)" stroke="rgb(0,0,0)" stroke-width="1" opacity="0.7725490196078432" d="M 172.5 81 L 171.5 83 L 172.5 81 Z " /><path fill="rgb(0,0,0)" stroke="rgb(0,0,0)" stroke-width="1" opacity="0.7725490196078432" d="M 339.5 81 L 340.5 83 L 339.5 81 Z " /><path fill="rgb(0,0,0)" stroke="rgb(0,0,0)" stroke-width="1" opacity="0.7725490196078432" d="M 167.5 89 L 168 119.5 L 167 119.5 L 167.5 89 Z " /><path fill="rgb(0,0,0)" stroke="rgb(0,0,0)" stroke-width="1" opacity="0.7725490196078432" d="M 344.5 89 L 345 119.5 L 344 119.5 L 344.5 89 Z " /><path fill="rgb(0,0,0)" stroke="rgb(0,0,0)" stroke-width="1" opacity="0.7725490196078432" d="M 129.5 122 L 128.5 124 L 129.5 122 Z " /><path fill="rgb(0,0,0)" stroke="rgb(0,0,0)" stroke-width="1" opacity="0.7725490196078432" d="M 382.5 122 L 383.5 124 L 382.5 122 Z " /><path fill="rgb(0,0,0)" stroke="rgb(0,0,0)" stroke-width="1" opacity="0.7725490196078432" d="M 99.5 162 L 98.5 164 L 99.5 162 Z " /><path fill="rgb(0,0,0)" stroke="rgb(0,0,0)" stroke-width="1" opacity="0.7725490196078432" d="M 412.5 162 L 413.5 164 L 412.5 162 Z " /><path fill="rgb(0,0,0)" stroke="rgb(0,0,0)" stroke-width="1" opacity="0.7725490196078432" d="M 95.5 255 L 94.5 257 L 95.5 255 Z " /><path fill="rgb(0,0,0)" stroke="rgb(0,0,0)" stroke-width="1" opacity="0.7725490196078432" d="M 416.5 255 L 417.5 257 L 416.5 255 Z " /><path fill="rgb(0,0,0)" stroke="rgb(0,0,0)" stroke-width="1" opacity="0.7725490196078432" d="M 421.5 258 L 422.5 260 L 421.5 258 Z " /><path fill="rgb(0,0,0)" stroke="rgb(0,0,0)" stroke-width="1" opacity="0.7725490196078432" d="M 82.5 263 L 81.5 265 L 82.5 263 Z " /><path fill="rgb(0,0,0)" stroke="rgb(0,0,0)" stroke-width="1" opacity="0.7725490196078432" d="M 77.5 266 L 76.5 268 L 77.5 266 Z " /><path fill="rgb(0,0,0)" stroke="rgb(0,0,0)" stroke-width="1" opacity="0.7725490196078432" d="M 72.5 269 L 71.5 271 L 72.5 269 Z " /><path fill="rgb(0,0,0)" stroke="rgb(0,0,0)" stroke-width="1" opacity="0.7725490196078432" d="M 439.5 269 L 440.5 271 L 439.5 269 Z " /><path fill="rgb(0,0,0)" stroke="rgb(0,0,0)" stroke-width="1" opacity="0.7725490196078432" d="M 67.5 272 L 66.5 274 L 67.5 272 Z " /><path fill="rgb(0,0,0)" stroke="rgb(0,0,0)" stroke-width="1" opacity="0.7725490196078432" d="M 444.5 272 L 445.5 274 L 444.5 272 Z " /><path fill="rgb(0,0,0)" stroke="rgb(0,0,0)" stroke-width="1" opacity="0.7725490196078432" d="M 449.5 275 L 450.5 277 L 449.5 275 Z " /><path fill="rgb(0,0,0)" stroke="rgb(0,0,0)" stroke-width="1" opacity="0.7725490196078432" d="M 454.5 278 L 455.5 280 L 454.5 278 Z " /><path fill="rgb(0,0,0)" stroke="rgb(0,0,0)" stroke-width="1" opacity="0.7725490196078432" d="M 459.5 281 L 460.5 283 L 459.5 281 Z " /><path fill="rgb(0,0,0)" stroke="rgb(0,0,0)" stroke-width="1" opacity="0.7725490196078432" d="M 46.5 285 L 45.5 287 L 46.5 285 Z " /><path fill="rgb(0,0,0)" stroke="rgb(0,0,0)" stroke-width="1" opacity="0.7725490196078432" d="M 465.5 285 L 466.5 287 L 465.5 285 Z " /><path fill="rgb(0,0,0)" stroke="rgb(0,0,0)" stroke-width="1" opacity="0.7725490196078432" d="M 43.5 294 L 44 296.5 L 43 296.5 L 43.5 294 Z " /><path fill="rgb(0,0,0)" stroke="rgb(0,0,0)" stroke-width="1" opacity="0.7725490196078432" d="M 468.5 294 L 469 296.5 L 468 296.5 L 468.5 294 Z " /><path fill="rgb(0,0,0)" stroke="rgb(0,0,0)" stroke-width="1" opacity="0.7725490196078432" d="M 495.5 454 L 492.5 458 L 495.5 454 Z " /><path fill="rgb(0,0,0)" stroke="rgb(0,0,0)" stroke-width="1" opacity="0.7725490196078432" d="M 508.5 454 L 509.5 456 L 508.5 454 Z " /><path fill="rgb(0,0,0)" stroke="rgb(0,0,0)" stroke-width="1" opacity="0.7725490196078432" d="M 488.5 460 L 485.5 464 L 488.5 460 Z " /><path fill="rgb(0,0,0)" stroke="rgb(0,0,0)" stroke-width="1" opacity="0.7725490196078432" d="M 56.5 465 L 60 465.5 L 56.5 466 L 56.5 465 Z " /><path fill="rgb(0,0,0)" stroke="rgb(0,0,0)" stroke-width="1" opacity="0.7725490196078432" d="M 72.5 465 L 77 465.5 L 72.5 466 L 72.5 465 Z " /><path fill="rgb(0,0,0)" stroke="rgb(0,0,0)" stroke-width="1" opacity="0.7725490196078432" d="M 482.5 465 L 480.5 468 L 482.5 465 Z " /><path fill="rgb(0,0,0)" stroke="rgb(0,0,0)" stroke-width="1" opacity="0.7725490196078432" d="M 51.5 466 L 54 466.5 L 51.5 467 L 51.5 466 Z " /><path fill="rgb(0,0,0)" stroke="rgb(0,0,0)" stroke-width="1" opacity="0.7725490196078432" d="M 86.5 467 L 89 467.5 L 86.5 468 L 86.5 467 Z " /><path fill="rgb(0,0,0)" stroke="rgb(0,0,0)" stroke-width="1" opacity="0.7725490196078432" d="M 478.5 468 L 477.5 470 L 478.5 468 Z " /><path fill="rgb(0,0,0)" stroke="rgb(0,0,0)" stroke-width="1" opacity="0.7725490196078432" d="M 509.5 468 L 507.5 471 L 509.5 468 Z " /><path fill="rgb(0,0,0)" stroke="rgb(0,0,0)" stroke-width="1" opacity="0.7725490196078432" d="M 416.5 470 L 417.5 472 L 416.5 470 Z " /><path fill="rgb(0,0,0)" stroke="rgb(0,0,0)" stroke-width="1" opacity="0.7725490196078432" d="M 475.5 470 L 474.5 472 L 475.5 470 Z " /><path fill="rgb(0,0,0)" stroke="rgb(0,0,0)" stroke-width="1" opacity="0.7725490196078432" d="M 503.5 473 L 500.5 477 L 503.5 473 Z " /><path fill="rgb(0,0,0)" stroke="rgb(0,0,0)" stroke-width="1" opacity="0.7725490196078432" d="M 27.5 476 L 26.5 478 L 27.5 476 Z " /><path fill="rgb(0,0,0)" stroke="rgb(0,0,0)" stroke-width="1" opacity="0.7725490196078432" d="M 437.5 478 L 440 478.5 L 437.5 479 L 437.5 478 Z " /><path fill="rgb(0,0,0)" stroke="rgb(0,0,0)" stroke-width="1" opacity="0.7725490196078432" d="M 454.5 478 L 457 478.5 L 454.5 479 L 454.5 478 Z " /><path fill="rgb(0,0,0)" stroke="rgb(0,0,0)" stroke-width="1" opacity="0.7725490196078432" d="M 497.5 478 L 495.5 481 L 497.5 478 Z " /><path fill="rgb(0,0,0)" stroke="rgb(0,0,0)" stroke-width="1" opacity="0.7725490196078432" d="M 207.5 480 L 211 480.5 L 207.5 481 L 207.5 480 Z " /><path fill="rgb(0,0,0)" stroke="rgb(0,0,0)" stroke-width="1" opacity="0.7725490196078432" d="M 220.5 480 L 224 480.5 L 220.5 481 L 220.5 480 Z " /><path fill="rgb(0,0,0)" stroke="rgb(0,0,0)" stroke-width="1" opacity="0.7725490196078432" d="M 366.5 480 L 370 480.5 L 366.5 481 L 366.5 480 Z " /><path fill="rgb(0,0,0)" stroke="rgb(0,0,0)" stroke-width="1" opacity="0.7725490196078432" d="M 378.5 480 L 382 480.5 L 378.5 481 L 378.5 480 Z " /><path fill="rgb(0,0,0)" stroke="rgb(0,0,0)" stroke-width="1" opacity="0.7725490196078432" d="M 385.5 481 L 388 481.5 L 385.5 482 L 385.5 481 Z " /><path fill="rgb(0,0,0)" stroke="rgb(0,0,0)" stroke-width="1" opacity="0.7725490196078432" d="M 18.5 482 L 17.5 484 L 18.5 482 Z " /><path fill="rgb(0,0,0)" stroke="rgb(0,0,0)" stroke-width="1" opacity="0.7725490196078432" d="M 492.5 482 L 491.5 484 L 492.5 482 Z " /><path fill="rgb(0,0,0)" stroke="rgb(0,0,0)" stroke-width="1" opacity="0.7725490196078432" d="M 14.5 485 L 13.5 487 L 14.5 485 Z " /><path fill="rgb(0,0,0)" stroke="rgb(0,0,0)" stroke-width="1" opacity="0.7725490196078432" d="M 59.5 485 L 62 485.5 L 59.5 486 L 59.5 485 Z " /><path fill="rgb(0,0,0)" stroke="rgb(0,0,0)" stroke-width="1" opacity="0.7725490196078432" d="M 74.5 485 L 77 485.5 L 74.5 486 L 74.5 485 Z " /><path fill="rgb(0,0,0)" stroke="rgb(0,0,0)" stroke-width="1" opacity="0.7725490196078432" d="M 10.5 488 L 7.5 492 L 10.5 488 Z " /><path fill="rgb(0,0,0)" stroke="rgb(0,0,0)" stroke-width="1" opacity="0.7725490196078432" d="M 483.5 488 L 482.5 490 L 483.5 488 Z " /><path fill="rgb(0,0,0)" stroke="rgb(0,0,0)" stroke-width="1" opacity="0.7725490196078432" d="M 41.5 491 L 43 491.5 L 40.5 493 L 41.5 491 Z " /><path fill="rgb(0,0,0)" stroke="rgb(0,0,0)" stroke-width="1" opacity="0.7725490196078432" d="M 92.5 491 L 96 492.5 L 94.5 493 L 92.5 491 Z " /><path fill="rgb(0,0,0)" stroke="rgb(0,0,0)" stroke-width="1" opacity="0.7725490196078432" d="M 4.5 493 L 2.5 496 L 4.5 493 Z " /><path fill="rgb(0,0,0)" stroke="rgb(0,0,0)" stroke-width="1" opacity="0.7725490196078432" d="M 332.5 494 L 331.5 496 L 332.5 494 Z " /><path fill="rgb(0,0,0)" stroke="rgb(0,0,0)" stroke-width="1" opacity="0.7725490196078432" d="M 31.5 497 L 30.5 499 L 31.5 497 Z " /><path fill="rgb(0,0,0)" stroke="rgb(0,0,0)" stroke-width="1" opacity="0.7725490196078432" d="M 459.5 497 L 462 497.5 L 459.5 498 L 459.5 497 Z " /><path fill="rgb(0,0,0)" stroke="rgb(0,0,0)" stroke-width="1" opacity="0.7725490196078432" d="M 436.5 498 L 441 498.5 L 436.5 499 L 436.5 498 Z " /><path fill="rgb(0,0,0)" stroke="rgb(0,0,0)" stroke-width="1" opacity="0.7725490196078432" d="M 451.5 498 L 456 498.5 L 451.5 499 L 451.5 498 Z " /><path fill="rgb(0,0,0)" stroke="rgb(0,0,0)" stroke-width="1" opacity="0.7725490196078432" d="M 27.5 500 L 26.5 502 L 27.5 500 Z " /><path fill="rgb(0,0,0)" stroke="rgb(0,0,0)" stroke-width="1" opacity="0.7725490196078432" d="M 125.5 502 L 129 502.5 L 125.5 503 L 125.5 502 Z " /><path fill="rgb(0,0,0)" stroke="rgb(0,0,0)" stroke-width="1" opacity="0.7725490196078432" d="M 146.5 502 L 149 502.5 L 146.5 503 L 146.5 502 Z " /><path fill="rgb(0,0,0)" stroke="rgb(0,0,0)" stroke-width="1" opacity="0.7725490196078432" d="M 23.5 503 L 21.5 506 L 23.5 503 Z " /><path fill="rgb(0,0,0)" stroke="rgb(0,0,0)" stroke-width="1" opacity="0.7725490196078432" d="M 282.5 503 L 285 503.5 L 282.5 504 L 282.5 503 Z " /><path fill="rgb(0,0,0)" stroke="rgb(0,0,0)" stroke-width="1" opacity="0.7725490196078432" d="M 306.5 503 L 309 503.5 L 306.5 504 L 306.5 503 Z " /><path fill="rgb(0,0,0)" stroke="rgb(0,0,0)" stroke-width="1" opacity="0.7725490196078432" d="M 290.5 504 L 301 504.5 L 290.5 505 L 290.5 504 Z " /><path fill="rgb(0,0,0)" stroke="rgb(0,0,0)" stroke-width="1" opacity="0.7725490196078432" d="M 18.5 507 L 16.5 510 L 18.5 507 Z " /><path fill="rgb(0,0,0)" stroke="rgb(0,0,0)" stroke-width="1" opacity="0.7725490196078432" d="M 2.5 508 L 3.5 510 L 2.5 508 Z " /><path fill="rgb(0,0,0)" stroke="rgb(0,0,0)" stroke-width="1" opacity="1" d="M 235.5 0 L 276.5 0 L 284 4.5 L 286 9.5 L 286 80 L 334.5 80 L 342 83 L 344 87.5 L 344 120 L 376.5 120 L 384 124.5 L 386 129.5 L 386 160 L 406.5 160 L 414 164.5 L 416 169.5 L 416 255.5 L 417.5 257 L 463.5 284 L 467 287.5 L 469 293.5 L 416 470.5 Q 422.8 475.8 432.5 478 L 447.5 480 L 448.5 479 L 460.5 478 L 474.5 472 L 496.5 454 L 502.5 452 L 510 456.5 L 512 462.5 Q 510.2 469.7 504.5 473 Q 492 485 475.5 493 L 458.5 498 L 441.5 499 L 440.5 498 L 432.5 498 L 418.5 494 L 391.5 482 L 381.5 480 L 366.5 480 L 350.5 485 L 318.5 501 L 305.5 504 L 285.5 504 L 266.5 499 L 231.5 482 L 223.5 480 L 207.5 480 L 187.5 486 L 164.5 498 L 155.5 501 L 145.5 503 L 129.5 503 L 105.5 497 L 80.5 486 Q 72.2 483.3 59.5 485 L 41.5 491 Q 26.9 498.9 15.5 510 L 9.5 512 L 2 507.5 L 0 501.5 Q 1.5 495 6.5 492 Q 21.1 478.6 40.5 470 L 60.5 465 L 71.5 465 L 72.5 466 L 85.5 467 L 95 470 L 43 292.5 Q 44.3 286.8 48.5 284 L 96 255.5 L 96 169.5 L 100.5 162 L 105.5 160 L 126 160 L 126 129.5 L 130.5 122 L 135.5 120 L 168 120 L 168 87.5 L 170 83 L 177.5 80 L 226 80 L 226 9.5 L 230.5 2 L 235.5 0 Z M 246 20 L 246 80 L 266 80 L 266 20 L 246 20 Z M 187 100 L 187 120 L 188 120 L 325 120 L 325 101 L 325 100 L 187 100 Z M 146 140 L 146 160 L 147 160 L 366 160 L 366 141 L 366 140 L 146 140 Z M 116 180 L 116 243 L 220 181 L 116 180 Z M 293 180 L 296 183 L 396 243 L 396 180 L 293 180 Z M 246 188 L 65 298 L 119 481 L 124 483 Q 128 482 130 484 L 148 483 L 157 480 L 186 465 L 207 460 L 228 461 L 245 466 L 246 467 L 246 188 Z M 267 188 L 266 477 L 287 484 L 306 484 L 311 483 L 344 467 L 358 462 L 368 460 L 394 461 L 398 463 L 399 462 L 408 432 L 447 298 L 267 188 Z " /><path fill="rgb(0,0,0)" stroke="rgb(0,0,0)" stroke-width="1" opacity="1" d="M 218.5 232 L 221.5 232 L 228 236.5 L 230 242.5 L 229 246.5 L 224.5 251 L 217.5 252 L 212 248.5 Q 209.2 245.8 210 239.5 L 213.5 234 L 218.5 232 Z " /><path fill="rgb(0,0,0)" stroke="rgb(0,0,0)" stroke-width="1" opacity="1" d="M 295.5 233 Q 304.1 231.9 306 237.5 L 308 244.5 L 302.5 252 L 296.5 253 L 289 247.5 L 288 240.5 L 291.5 235 L 295.5 233 Z " /><path fill="rgb(0,0,0)" stroke="rgb(0,0,0)" stroke-width="1" opacity="1" d="M 182.5 254 Q 191.5 252.5 194 257.5 L 196 264.5 L 191.5 272 L 126.5 313 L 120.5 314 L 113 309.5 L 112 300.5 L 115.5 296 L 182.5 254 Z " /><path fill="rgb(0,0,0)" stroke="rgb(0,0,0)" stroke-width="1" opacity="1" d="M 329.5 254 Q 335.8 253.2 338.5 256 L 395.5 291 L 405 298.5 L 406 307.5 L 402.5 312 L 395.5 314 L 333.5 277 L 323 268.5 L 322 261.5 L 325.5 256 L 329.5 254 Z " /><path fill="rgb(86,86,84)" stroke="rgb(86,86,84)" stroke-width="1" opacity="1" d="M 187.5 100 L 188 119.5 L 187 119.5 L 187.5 100 Z " /><path fill="rgb(86,86,84)" stroke="rgb(86,86,84)" stroke-width="1" opacity="1" d="M 324.5 100 L 325 119.5 L 324 119.5 L 324.5 100 Z " /><path fill="rgb(86,86,84)" stroke="rgb(86,86,84)" stroke-width="1" opacity="1" d="M 241.5 190 L 240.5 192 L 241.5 190 Z " /><path fill="rgb(86,86,84)" stroke="rgb(86,86,84)" stroke-width="1" opacity="1" d="M 270.5 190 L 271.5 192 L 270.5 190 Z " /><path fill="rgb(86,86,84)" stroke="rgb(86,86,84)" stroke-width="1" opacity="1" d="M 236.5 193 L 235.5 195 L 236.5 193 Z " /><path fill="rgb(86,86,84)" stroke="rgb(86,86,84)" stroke-width="1" opacity="1" d="M 275.5 193 L 276.5 195 L 275.5 193 Z " /><path fill="rgb(86,86,84)" stroke="rgb(86,86,84)" stroke-width="1" opacity="1" d="M 231.5 196 L 230.5 198 L 231.5 196 Z " /><path fill="rgb(86,86,84)" stroke="rgb(86,86,84)" stroke-width="1" opacity="1" d="M 280.5 196 L 281.5 198 L 280.5 196 Z " /><path fill="rgb(86,86,84)" stroke="rgb(86,86,84)" stroke-width="1" opacity="1" d="M 285.5 199 L 286.5 201 L 285.5 199 Z " /><path fill="rgb(86,86,84)" stroke="rgb(86,86,84)" stroke-width="1" opacity="1" d="M 290.5 202 L 291.5 204 L 290.5 202 Z " /><path fill="rgb(86,86,84)" stroke="rgb(86,86,84)" stroke-width="1" opacity="1" d="M 218.5 204 L 217.5 206 L 218.5 204 Z " /><path fill="rgb(86,86,84)" stroke="rgb(86,86,84)" stroke-width="1" opacity="1" d="M 213.5 207 L 212.5 209 L 213.5 207 Z " /><path fill="rgb(86,86,84)" stroke="rgb(86,86,84)" stroke-width="1" opacity="1" d="M 208.5 210 L 207.5 212 L 208.5 210 Z " /><path fill="rgb(86,86,84)" stroke="rgb(86,86,84)" stroke-width="1" opacity="1" d="M 303.5 210 L 304.5 212 L 303.5 210 Z " /><path fill="rgb(86,86,84)" stroke="rgb(86,86,84)" stroke-width="1" opacity="1" d="M 203.5 213 L 202.5 215 L 203.5 213 Z " /><path fill="rgb(86,86,84)" stroke="rgb(86,86,84)" stroke-width="1" opacity="1" d="M 308.5 213 L 309.5 215 L 308.5 213 Z " /><path fill="rgb(86,86,84)" stroke="rgb(86,86,84)" stroke-width="1" opacity="1" d="M 198.5 216 L 197.5 218 L 198.5 216 Z " /><path fill="rgb(86,86,84)" stroke="rgb(86,86,84)" stroke-width="1" opacity="1" d="M 313.5 216 L 314.5 218 L 313.5 216 Z " /><path fill="rgb(86,86,84)" stroke="rgb(86,86,84)" stroke-width="1" opacity="1" d="M 318.5 219 L 319.5 221 L 318.5 219 Z " /><path fill="rgb(86,86,84)" stroke="rgb(86,86,84)" stroke-width="1" opacity="1" d="M 323.5 222 L 324.5 224 L 323.5 222 Z " /><path fill="rgb(86,86,84)" stroke="rgb(86,86,84)" stroke-width="1" opacity="1" d="M 185.5 224 L 184.5 226 L 185.5 224 Z " /><path fill="rgb(86,86,84)" stroke="rgb(86,86,84)" stroke-width="1" opacity="1" d="M 180.5 227 L 179.5 229 L 180.5 227 Z " /><path fill="rgb(86,86,84)" stroke="rgb(86,86,84)" stroke-width="1" opacity="1" d="M 175.5 230 L 174.5 232 L 175.5 230 Z " /><path fill="rgb(86,86,84)" stroke="rgb(86,86,84)" stroke-width="1" opacity="1" d="M 336.5 230 L 337.5 232 L 336.5 230 Z " /><path fill="rgb(86,86,84)" stroke="rgb(86,86,84)" stroke-width="1" opacity="1" d="M 170.5 233 L 169.5 235 L 170.5 233 Z " /><path fill="rgb(86,86,84)" stroke="rgb(86,86,84)" stroke-width="1" opacity="1" d="M 341.5 233 L 342.5 235 L 341.5 233 Z " /><path fill="rgb(86,86,84)" stroke="rgb(86,86,84)" stroke-width="1" opacity="1" d="M 226.5 234 L 227.5 236 L 226.5 234 Z " /><path fill="rgb(86,86,84)" stroke="rgb(86,86,84)" stroke-width="1" opacity="1" d="M 303.5 234 L 305.5 237 L 303.5 234 Z " /><path fill="rgb(86,86,84)" stroke="rgb(86,86,84)" stroke-width="1" opacity="1" d="M 165.5 236 L 164.5 238 L 165.5 236 Z " /><path fill="rgb(86,86,84)" stroke="rgb(86,86,84)" stroke-width="1" opacity="1" d="M 211.5 236 L 211 237.5 L 210.5 239 L 210 237.5 L 211.5 236 Z " /><path fill="rgb(86,86,84)" stroke="rgb(86,86,84)" stroke-width="1" opacity="1" d="M 346.5 236 L 347.5 238 L 346.5 236 Z " /><path fill="rgb(86,86,84)" stroke="rgb(86,86,84)" stroke-width="1" opacity="1" d="M 351.5 239 L 352.5 241 L 351.5 239 Z " /><path fill="rgb(86,86,84)" stroke="rgb(86,86,84)" stroke-width="1" opacity="1" d="M 209.5 241 L 210 243.5 L 209 243.5 L 209.5 241 Z " /><path fill="rgb(86,86,84)" stroke="rgb(86,86,84)" stroke-width="1" opacity="1" d="M 356.5 242 L 357.5 244 L 356.5 242 Z " /><path fill="rgb(86,86,84)" stroke="rgb(86,86,84)" stroke-width="1" opacity="1" d="M 210.5 245 L 212 247.5 L 210 246.5 L 210.5 245 Z " /><path fill="rgb(86,86,84)" stroke="rgb(86,86,84)" stroke-width="1" opacity="1" d="M 147.5 247 L 146.5 249 L 147.5 247 Z " /><path fill="rgb(86,86,84)" stroke="rgb(86,86,84)" stroke-width="1" opacity="1" d="M 228.5 247 L 225.5 251 L 228.5 247 Z " /><path fill="rgb(86,86,84)" stroke="rgb(86,86,84)" stroke-width="1" opacity="1" d="M 289.5 248 L 292.5 252 L 289.5 248 Z " /><path fill="rgb(86,86,84)" stroke="rgb(86,86,84)" stroke-width="1" opacity="1" d="M 306.5 248 L 303.5 252 L 306.5 248 Z " /><path fill="rgb(86,86,84)" stroke="rgb(86,86,84)" stroke-width="1" opacity="1" d="M 142.5 250 L 141.5 252 L 142.5 250 Z " /><path fill="rgb(86,86,84)" stroke="rgb(86,86,84)" stroke-width="1" opacity="1" d="M 214.5 250 L 217 251.5 L 215.5 252 L 214.5 250 Z " /><path fill="rgb(86,86,84)" stroke="rgb(86,86,84)" stroke-width="1" opacity="1" d="M 137.5 253 L 136.5 255 L 137.5 253 Z " /><path fill="rgb(86,86,84)" stroke="rgb(86,86,84)" stroke-width="1" opacity="1" d="M 183.5 253 L 188 253.5 L 183.5 254 L 183.5 253 Z " /><path fill="rgb(86,86,84)" stroke="rgb(86,86,84)" stroke-width="1" opacity="1" d="M 374.5 253 L 375.5 255 L 374.5 253 Z " /><path fill="rgb(86,86,84)" stroke="rgb(86,86,84)" stroke-width="1" opacity="1" d="M 132.5 256 L 131.5 258 L 132.5 256 Z " /><path fill="rgb(86,86,84)" stroke="rgb(86,86,84)" stroke-width="1" opacity="1" d="M 339.5 256 L 340.5 258 L 339.5 256 Z " /><path fill="rgb(86,86,84)" stroke="rgb(86,86,84)" stroke-width="1" opacity="1" d="M 379.5 256 L 380.5 258 L 379.5 256 Z " /><path fill="rgb(86,86,84)" stroke="rgb(86,86,84)" stroke-width="1" opacity="1" d="M 174.5 258 L 173.5 260 L 174.5 258 Z " /><path fill="rgb(86,86,84)" stroke="rgb(86,86,84)" stroke-width="1" opacity="1" d="M 344.5 259 L 345.5 261 L 344.5 259 Z " /><path fill="rgb(86,86,84)" stroke="rgb(86,86,84)" stroke-width="1" opacity="1" d="M 384.5 259 L 385.5 261 L 384.5 259 Z " /><path fill="rgb(86,86,84)" stroke="rgb(86,86,84)" stroke-width="1" opacity="1" d="M 347.5 261 L 348.5 263 L 347.5 261 Z " /><path fill="rgb(86,86,84)" stroke="rgb(86,86,84)" stroke-width="1" opacity="1" d="M 389.5 262 L 390.5 264 L 389.5 262 Z " /><path fill="rgb(86,86,84)" stroke="rgb(86,86,84)" stroke-width="1" opacity="1" d="M 166.5 263 L 165.5 265 L 166.5 263 Z " /><path fill="rgb(86,86,84)" stroke="rgb(86,86,84)" stroke-width="1" opacity="1" d="M 352.5 264 L 353.5 266 L 352.5 264 Z " /><path fill="rgb(86,86,84)" stroke="rgb(86,86,84)" stroke-width="1" opacity="1" d="M 163.5 265 L 162.5 267 L 163.5 265 Z " /><path fill="rgb(86,86,84)" stroke="rgb(86,86,84)" stroke-width="1" opacity="1" d="M 114.5 267 L 113.5 269 L 114.5 267 Z " /><path fill="rgb(86,86,84)" stroke="rgb(86,86,84)" stroke-width="1" opacity="1" d="M 158.5 268 L 157.5 270 L 158.5 268 Z " /><path fill="rgb(86,86,84)" stroke="rgb(86,86,84)" stroke-width="1" opacity="1" d="M 323.5 269 L 326.5 273 L 323.5 269 Z " /><path fill="rgb(86,86,84)" stroke="rgb(86,86,84)" stroke-width="1" opacity="1" d="M 360.5 269 L 361.5 271 L 360.5 269 Z " /><path fill="rgb(86,86,84)" stroke="rgb(86,86,84)" stroke-width="1" opacity="1" d="M 109.5 270 L 108.5 272 L 109.5 270 Z " /><path fill="rgb(86,86,84)" stroke="rgb(86,86,84)" stroke-width="1" opacity="1" d="M 155.5 270 L 154.5 272 L 155.5 270 Z " /><path fill="rgb(86,86,84)" stroke="rgb(86,86,84)" stroke-width="1" opacity="1" d="M 365.5 272 L 366.5 274 L 365.5 272 Z " /><path fill="rgb(86,86,84)" stroke="rgb(86,86,84)" stroke-width="1" opacity="1" d="M 104.5 273 L 103.5 275 L 104.5 273 Z " /><path fill="rgb(86,86,84)" stroke="rgb(86,86,84)" stroke-width="1" opacity="1" d="M 328.5 273 L 329.5 275 L 328.5 273 Z " /><path fill="rgb(86,86,84)" stroke="rgb(86,86,84)" stroke-width="1" opacity="1" d="M 407.5 273 L 408.5 275 L 407.5 273 Z " /><path fill="rgb(86,86,84)" stroke="rgb(86,86,84)" stroke-width="1" opacity="1" d="M 147.5 275 L 146.5 277 L 147.5 275 Z " /><path fill="rgb(86,86,84)" stroke="rgb(86,86,84)" stroke-width="1" opacity="1" d="M 185.5 275 L 184.5 277 L 185.5 275 Z " /><path fill="rgb(86,86,84)" stroke="rgb(86,86,84)" stroke-width="1" opacity="1" d="M 99.5 276 L 98.5 278 L 99.5 276 Z " /><path fill="rgb(86,86,84)" stroke="rgb(86,86,84)" stroke-width="1" opacity="1" d="M 412.5 276 L 413.5 278 L 412.5 276 Z " /><path fill="rgb(86,86,84)" stroke="rgb(86,86,84)" stroke-width="1" opacity="1" d="M 144.5 277 L 143.5 279 L 144.5 277 Z " /><path fill="rgb(86,86,84)" stroke="rgb(86,86,84)" stroke-width="1" opacity="1" d="M 182.5 277 L 181.5 279 L 182.5 277 Z " /><path fill="rgb(86,86,84)" stroke="rgb(86,86,84)" stroke-width="1" opacity="1" d="M 373.5 277 L 374.5 279 L 373.5 277 Z " /><path fill="rgb(86,86,84)" stroke="rgb(86,86,84)" stroke-width="1" opacity="1" d="M 336.5 278 L 337.5 280 L 336.5 278 Z " /><path fill="rgb(86,86,84)" stroke="rgb(86,86,84)" stroke-width="1" opacity="1" d="M 417.5 279 L 418.5 281 L 417.5 279 Z " /><path fill="rgb(86,86,84)" stroke="rgb(86,86,84)" stroke-width="1" opacity="1" d="M 139.5 280 L 138.5 282 L 139.5 280 Z " /><path fill="rgb(86,86,84)" stroke="rgb(86,86,84)" stroke-width="1" opacity="1" d="M 177.5 280 L 176.5 282 L 177.5 280 Z " /><path fill="rgb(86,86,84)" stroke="rgb(86,86,84)" stroke-width="1" opacity="1" d="M 378.5 280 L 379.5 282 L 378.5 280 Z " /><path fill="rgb(86,86,84)" stroke="rgb(86,86,84)" stroke-width="1" opacity="1" d="M 341.5 281 L 342.5 283 L 341.5 281 Z " /><path fill="rgb(86,86,84)" stroke="rgb(86,86,84)" stroke-width="1" opacity="1" d="M 136.5 282 L 135.5 284 L 136.5 282 Z " /><path fill="rgb(86,86,84)" stroke="rgb(86,86,84)" stroke-width="1" opacity="1" d="M 174.5 282 L 173.5 284 L 174.5 282 Z " /><path fill="rgb(86,86,84)" stroke="rgb(86,86,84)" stroke-width="1" opacity="1" d="M 422.5 282 L 423.5 284 L 422.5 282 Z " /><path fill="rgb(86,86,84)" stroke="rgb(86,86,84)" stroke-width="1" opacity="1" d="M 386.5 285 L 387.5 287 L 386.5 285 Z " /><path fill="rgb(86,86,84)" stroke="rgb(86,86,84)" stroke-width="1" opacity="1" d="M 349.5 286 L 350.5 288 L 349.5 286 Z " /><path fill="rgb(86,86,84)" stroke="rgb(86,86,84)" stroke-width="1" opacity="1" d="M 81.5 287 L 80.5 289 L 81.5 287 Z " /><path fill="rgb(86,86,84)" stroke="rgb(86,86,84)" stroke-width="1" opacity="1" d="M 128.5 287 L 127.5 289 L 128.5 287 Z " /><path fill="rgb(86,86,84)" stroke="rgb(86,86,84)" stroke-width="1" opacity="1" d="M 166.5 287 L 165.5 289 L 166.5 287 Z " /><path fill="rgb(86,86,84)" stroke="rgb(86,86,84)" stroke-width="1" opacity="1" d="M 391.5 288 L 392.5 290 L 391.5 288 Z " /><path fill="rgb(86,86,84)" stroke="rgb(86,86,84)" stroke-width="1" opacity="1" d="M 125.5 289 L 124.5 291 L 125.5 289 Z " /><path fill="rgb(86,86,84)" stroke="rgb(86,86,84)" stroke-width="1" opacity="1" d="M 163.5 289 L 162.5 291 L 163.5 289 Z " /><path fill="rgb(86,86,84)" stroke="rgb(86,86,84)" stroke-width="1" opacity="1" d="M 354.5 289 L 355.5 291 L 354.5 289 Z " /><path fill="rgb(86,86,84)" stroke="rgb(86,86,84)" stroke-width="1" opacity="1" d="M 76.5 290 L 75.5 292 L 76.5 290 Z " /><path fill="rgb(86,86,84)" stroke="rgb(86,86,84)" stroke-width="1" opacity="1" d="M 120.5 292 L 119.5 294 L 120.5 292 Z " /><path fill="rgb(86,86,84)" stroke="rgb(86,86,84)" stroke-width="1" opacity="1" d="M 158.5 292 L 157.5 294 L 158.5 292 Z " /><path fill="rgb(86,86,84)" stroke="rgb(86,86,84)" stroke-width="1" opacity="1" d="M 71.5 293 L 70.5 295 L 71.5 293 Z " /><path fill="rgb(86,86,84)" stroke="rgb(86,86,84)" stroke-width="1" opacity="1" d="M 399.5 293 L 400.5 295 L 399.5 293 Z " /><path fill="rgb(86,86,84)" stroke="rgb(86,86,84)" stroke-width="1" opacity="1" d="M 440.5 293 L 441.5 295 L 440.5 293 Z " /><path fill="rgb(86,86,84)" stroke="rgb(86,86,84)" stroke-width="1" opacity="1" d="M 117.5 294 L 116.5 296 L 117.5 294 Z " /><path fill="rgb(86,86,84)" stroke="rgb(86,86,84)" stroke-width="1" opacity="1" d="M 155.5 294 L 154.5 296 L 155.5 294 Z " /><path fill="rgb(86,86,84)" stroke="rgb(86,86,84)" stroke-width="1" opacity="1" d="M 362.5 294 L 363.5 296 L 362.5 294 Z " /><path fill="rgb(86,86,84)" stroke="rgb(86,86,84)" stroke-width="1" opacity="1" d="M 402.5 295 L 404.5 298 L 402.5 295 Z " /><path fill="rgb(86,86,84)" stroke="rgb(86,86,84)" stroke-width="1" opacity="1" d="M 66.5 296 L 65.5 298 L 66.5 296 Z " /><path fill="rgb(86,86,84)" stroke="rgb(86,86,84)" stroke-width="1" opacity="1" d="M 445.5 296 L 446.5 298 L 445.5 296 Z " /><path fill="rgb(86,86,84)" stroke="rgb(86,86,84)" stroke-width="1" opacity="1" d="M 367.5 297 L 368.5 299 L 367.5 297 Z " /><path fill="rgb(86,86,84)" stroke="rgb(86,86,84)" stroke-width="1" opacity="1" d="M 147.5 299 L 146.5 301 L 147.5 299 Z " /><path fill="rgb(86,86,84)" stroke="rgb(86,86,84)" stroke-width="1" opacity="1" d="M 370.5 299 L 371.5 301 L 370.5 299 Z " /><path fill="rgb(86,86,84)" stroke="rgb(86,86,84)" stroke-width="1" opacity="1" d="M 406.5 301 L 407 306.5 L 406 306.5 L 406.5 301 Z " /><path fill="rgb(86,86,84)" stroke="rgb(86,86,84)" stroke-width="1" opacity="1" d="M 111.5 302 L 112 305.5 L 111 305.5 L 111.5 302 Z " /><path fill="rgb(86,86,84)" stroke="rgb(86,86,84)" stroke-width="1" opacity="1" d="M 375.5 302 L 376.5 304 L 375.5 302 Z " /><path fill="rgb(86,86,84)" stroke="rgb(86,86,84)" stroke-width="1" opacity="1" d="M 139.5 304 L 138.5 306 L 139.5 304 Z " /><path fill="rgb(86,86,84)" stroke="rgb(86,86,84)" stroke-width="1" opacity="1" d="M 136.5 306 L 135.5 308 L 136.5 306 Z " /><path fill="rgb(86,86,84)" stroke="rgb(86,86,84)" stroke-width="1" opacity="1" d="M 383.5 307 L 384.5 309 L 383.5 307 Z " /><path fill="rgb(86,86,84)" stroke="rgb(86,86,84)" stroke-width="1" opacity="1" d="M 131.5 309 L 130.5 311 L 131.5 309 Z " /><path fill="rgb(86,86,84)" stroke="rgb(86,86,84)" stroke-width="1" opacity="1" d="M 388.5 310 L 389.5 312 L 388.5 310 Z " /><path fill="rgb(86,86,84)" stroke="rgb(86,86,84)" stroke-width="1" opacity="1" d="M 128.5 311 L 127.5 313 L 128.5 311 Z " /><path fill="rgb(86,86,84)" stroke="rgb(86,86,84)" stroke-width="1" opacity="1" d="M 202.5 460 L 206 460.5 L 202.5 461 L 202.5 460 Z " /><path fill="rgb(86,86,84)" stroke="rgb(86,86,84)" stroke-width="1" opacity="1" d="M 221.5 460 L 225 460.5 L 221.5 461 L 221.5 460 Z " /><path fill="rgb(86,86,84)" stroke="rgb(86,86,84)" stroke-width="1" opacity="1" d="M 363.5 460 L 367 460.5 L 363.5 461 L 363.5 460 Z " /><path fill="rgb(86,86,84)" stroke="rgb(86,86,84)" stroke-width="1" opacity="1" d="M 382.5 460 L 390 460.5 L 382.5 461 L 382.5 460 Z " /><path fill="rgb(86,86,84)" stroke="rgb(86,86,84)" stroke-width="1" opacity="1" d="M 398.5 460 L 399 461.5 L 397 462.5 L 398.5 460 Z " /><path fill="rgb(86,86,84)" stroke="rgb(86,86,84)" stroke-width="1" opacity="1" d="M 196.5 461 L 199 461.5 L 196.5 462 L 196.5 461 Z " /><path fill="rgb(86,86,84)" stroke="rgb(86,86,84)" stroke-width="1" opacity="1" d="M 228.5 461 L 231 461.5 L 228.5 462 L 228.5 461 Z " /><path fill="rgb(86,86,84)" stroke="rgb(86,86,84)" stroke-width="1" opacity="1" d="M 177.5 468 L 176.5 470 L 177.5 468 Z " /><path fill="rgb(86,86,84)" stroke="rgb(86,86,84)" stroke-width="1" opacity="1" d="M 119.5 480 L 120.5 482 L 119.5 480 Z " /><path fill="rgb(86,86,84)" stroke="rgb(86,86,84)" stroke-width="1" opacity="1" d="M 145.5 482 L 148 482.5 L 145.5 483 L 145.5 482 Z " /><path fill="rgb(86,86,84)" stroke="rgb(86,86,84)" stroke-width="1" opacity="1" d="M 129.5 483 L 142 483.5 L 129.5 484 L 129.5 483 Z " /><path fill="rgb(86,86,84)" stroke="rgb(86,86,84)" stroke-width="1" opacity="1" d="M 286.5 483 L 290 483.5 L 286.5 484 L 286.5 483 Z " /><path fill="rgb(86,86,84)" stroke="rgb(86,86,84)" stroke-width="1" opacity="1" d="M 303.5 483 L 306 483.5 L 303.5 484 L 303.5 483 Z " /><path fill="rgb(110,110,109)" stroke="rgb(110,110,109)" stroke-width="1" opacity="1" d="M 212.5 234 L 211.5 236 L 212.5 234 Z " /><path fill="rgb(110,110,109)" stroke="rgb(110,110,109)" stroke-width="1" opacity="1" d="M 291.5 234 L 289.5 237 L 291.5 234 Z " /><path fill="rgb(110,110,109)" stroke="rgb(110,110,109)" stroke-width="1" opacity="1" d="M 211.5 248 L 213.5 251 L 211.5 248 Z " /><path fill="rgb(110,110,109)" stroke="rgb(110,110,109)" stroke-width="1" opacity="1" d="M 218.5 252 L 221 252.5 L 218.5 253 L 218.5 252 Z " /><path fill="rgb(110,110,109)" stroke="rgb(110,110,109)" stroke-width="1" opacity="1" d="M 192.5 255 L 194.5 258 L 192.5 255 Z " /><path fill="rgb(110,110,109)" stroke="rgb(110,110,109)" stroke-width="1" opacity="1" d="M 325.5 255 L 324.5 257 L 325.5 255 Z " /><path fill="rgb(110,110,109)" stroke="rgb(110,110,109)" stroke-width="1" opacity="1" d="M 194.5 269 L 192.5 272 L 194.5 269 Z " /><path fill="rgb(110,110,109)" stroke="rgb(110,110,109)" stroke-width="1" opacity="1" d="M 405.5 309 L 402.5 313 L 405.5 309 Z " /><path fill="rgb(110,110,109)" stroke="rgb(110,110,109)" stroke-width="1" opacity="1" d="M 113.5 310 L 115.5 313 L 113.5 310 Z " /><path fill="rgb(110,110,110)" stroke="rgb(110,110,110)" stroke-width="1" opacity="1" d="M 244.5 189 L 246 189.5 L 246 465.5 L 244.5 465 L 225.5 460 L 201.5 460 L 183.5 465 L 159.5 478 L 148.5 482 L 143.5 483 L 126.5 483 L 121.5 482 L 119 479.5 L 114 459.5 L 67 304.5 L 66 297 L 244.5 189 Z M 216 232 L 213 234 L 209 240 Q 208 246 211 249 L 219 253 L 225 252 L 230 246 L 229 237 Q 226 230 216 232 Z M 184 253 L 116 295 L 111 302 Q 110 308 113 311 L 118 314 Q 126 315 130 312 L 193 272 L 196 268 Q 197 261 195 258 L 189 253 L 184 253 Z " /><path fill="rgb(110,110,110)" stroke="rgb(110,110,110)" stroke-width="1" opacity="1" d="M 266 189 L 446 297 L 440 321.5 L 397.5 462 L 390.5 460 L 363.5 460 L 341.5 467 L 314.5 481 L 301.5 484 L 291.5 484 L 280.5 482 L 266 475.5 L 266 189 Z M 298 232 L 292 234 L 289 237 L 287 243 L 288 248 L 295 253 L 304 252 L 308 247 L 307 238 Q 305 232 298 232 Z M 332 253 L 326 255 L 322 260 L 321 264 L 322 269 L 328 274 L 393 314 Q 399 315 403 313 L 407 307 L 406 299 L 402 294 L 347 260 L 337 254 L 332 253 Z " /></svg>